<svg width="19" height="17" viewBox="0 0 19 17" fill="none" xmlns="http://www.w3.org/2000/svg">
<path d="M17.6378 7.79338H17.1937V5.1248C17.1937 4.03363 16.3054 3.1492 15.2181 3.1492H14.8084L14.8122 2.15757C14.8122 1.42247 14.215 0.825195 13.4799 0.825195H1.63393C0.74951 0.825195 0.0258903 1.53733 0.0144043 2.42175C0.0144043 2.42941 0.0144043 2.43707 0.0144043 2.44472V15.5158C0.0144043 16.2509 0.611678 16.8482 1.34678 16.8482H15.2219C16.3131 16.8482 17.1975 15.9599 17.1975 14.8726V12.2002H17.6416C18.2159 12.2002 18.683 11.7331 18.683 11.1588V8.83478C18.6792 8.26048 18.2121 7.79338 17.6378 7.79338ZM1.63393 1.74408H13.4799C13.7057 1.74408 13.8934 1.92785 13.8934 2.15375L13.8895 3.1492H1.63393C1.24724 3.1492 0.933286 2.83525 0.933286 2.44855C0.933286 2.06186 1.24724 1.74408 1.63393 1.74408ZM16.2748 14.8688C16.2748 15.4507 15.8 15.9255 15.2181 15.9255H1.34295C1.11706 15.9255 0.929458 15.7417 0.929458 15.512V3.90728C1.14386 4.01065 1.38124 4.06808 1.63393 4.06808H15.2181C15.8 4.06808 16.2748 4.54284 16.2748 5.1248V7.79338H13.1391C12.5648 7.79338 12.0977 8.26048 12.0977 8.83478V11.1588C12.0977 11.7331 12.5648 12.2002 13.1391 12.2002H16.2748V14.8688ZM17.7603 11.1588C17.7603 11.2277 17.7067 11.2813 17.6378 11.2813H13.1429C13.074 11.2813 13.0204 11.2277 13.0204 11.1588V8.83478C13.0204 8.7697 13.074 8.71227 13.1429 8.71227H17.6378C17.7029 8.71227 17.7603 8.76587 17.7603 8.83478V11.1588Z" fill="white"/>
</svg>
