<svg width="280" height="54" viewBox="0 0 280 54" fill="none" xmlns="http://www.w3.org/2000/svg">
<path d="M28.4802 13.0557V48.9867M28.4802 13.0557H18.0772C16.5444 13.0557 15.0744 12.4733 13.9906 11.4366C12.9067 10.3999 12.2978 8.99391 12.2978 7.52784C12.2978 6.06178 12.9067 4.65574 13.9906 3.61908C15.0744 2.58239 16.5444 2 18.0772 2C26.1684 2 28.4802 13.0557 28.4802 13.0557ZM28.4802 13.0557H38.883C40.4159 13.0557 41.8859 12.4733 42.9698 11.4366C44.0534 10.3999 44.6625 8.99391 44.6625 7.52784C44.6625 6.06178 44.0534 4.65574 42.9698 3.61908C41.8859 2.58239 40.4159 2 38.883 2C30.7919 2 28.4802 13.0557 28.4802 13.0557ZM28.4802 13.0557H50.2527C51.9007 13.0557 52.7245 13.0557 53.3538 13.3569C53.9076 13.6219 54.3574 14.0448 54.6396 14.5648C54.9603 15.156 54.9603 15.93 54.9603 17.478V22.453C54.9603 24.0011 54.9603 24.775 54.6396 25.3662C54.3574 25.8864 53.9076 26.309 53.3538 26.574C52.7245 26.8753 51.9007 26.8753 50.2527 26.8753H6.70758C5.05978 26.8753 4.23587 26.8753 3.60649 26.574C3.05288 26.309 2.60278 25.8864 2.32067 25.3662C2 24.775 2 24.0011 2 22.453V17.478C2 15.93 2 15.156 2.32067 14.5648C2.60278 14.0448 3.05288 13.6219 3.60649 13.3569C4.23587 13.0557 5.05978 13.0557 6.70758 13.0557H28.4802ZM7.88448 26.8753H49.0758V42.906C49.0758 46.0019 49.0758 47.55 48.4344 48.7324C47.8704 49.7725 46.9701 50.6182 45.8629 51.1481C44.6042 51.7506 42.9563 51.7506 39.6607 51.7506H17.2996C14.004 51.7506 12.3562 51.7506 11.0975 51.1481C9.99021 50.6182 9.09 49.7725 8.52586 48.7324C7.88448 47.55 7.88448 46.0019 7.88448 42.906V26.8753Z" stroke="url(#paint0_linear_201_108)" stroke-width="3.03871" stroke-linecap="round" stroke-linejoin="round"/>
<path d="M74.6355 27.154C74.6355 28.7066 74.8181 30.1071 75.1834 31.3553C75.5792 32.6035 76.1272 33.6842 76.8274 34.5975C77.5581 35.4804 78.4409 36.1654 79.476 36.6525C80.5111 37.1396 81.6984 37.3831 83.0379 37.3831C84.347 37.3831 85.5191 37.1396 86.5542 36.6525C87.6197 36.1654 88.5026 35.4804 89.2028 34.5975C89.9334 33.6842 90.4814 32.6035 90.8468 31.3553C91.2425 30.1071 91.4404 28.7066 91.4404 27.154C91.4404 25.6014 91.2425 24.201 90.8468 22.9528C90.4814 21.6741 89.9334 20.5934 89.2028 19.7105C88.5026 18.7972 87.6197 18.097 86.5542 17.6099C85.5191 17.1228 84.347 16.8792 83.0379 16.8792C81.6984 16.8792 80.5111 17.138 79.476 17.6556C78.4409 18.1427 77.5581 18.8429 76.8274 19.7562C76.1272 20.639 75.5792 21.7198 75.1834 22.9984C74.8181 24.2466 74.6355 25.6318 74.6355 27.154ZM98.7926 27.154C98.7926 29.3764 98.5186 31.3857 97.9706 33.1819C97.4226 34.9476 96.6463 36.5003 95.6417 37.8398C94.6675 39.1793 93.4954 40.2905 92.1254 41.1734C90.7554 42.0562 89.2485 42.6956 87.6045 43.0913C87.7567 43.7002 88.0916 44.1873 88.6091 44.5526C89.1267 44.9484 89.7812 45.2681 90.5728 45.5116C91.3643 45.7552 92.2776 45.9378 93.3127 46.0596C94.3782 46.1814 95.5199 46.2879 96.7376 46.3793L95.2763 51.5851C92.9017 51.4938 90.862 51.2503 89.1571 50.8545C87.4827 50.4892 86.0519 49.9716 84.8646 49.3019C83.7077 48.6321 82.7792 47.8101 82.079 46.8359C81.4092 45.8617 80.8916 44.7353 80.5263 43.4567C78.6388 43.2131 76.8883 42.6956 75.2748 41.904C73.6613 41.082 72.2608 39.9861 71.0735 38.6161C69.8862 37.2461 68.9577 35.6022 68.2879 33.6842C67.6182 31.7662 67.2833 29.5895 67.2833 27.154C67.2833 24.4445 67.7095 22.0699 68.5619 20.0302C69.4143 17.96 70.556 16.2247 71.9868 14.8243C73.4481 13.4239 75.1226 12.3736 77.0101 11.6734C78.928 10.9732 80.9373 10.623 83.0379 10.623C85.1994 10.623 87.2392 10.9732 89.1571 11.6734C91.0751 12.3736 92.7495 13.4239 94.1804 14.8243C95.6112 16.2247 96.7376 17.96 97.5596 20.0302C98.3816 22.0699 98.7926 24.4445 98.7926 27.154ZM124.778 42.178C123.621 42.5129 122.13 42.8173 120.303 43.0913C118.476 43.3958 116.558 43.548 114.549 43.548C112.509 43.548 110.804 43.274 109.434 42.726C108.095 42.178 107.029 41.4169 106.238 40.4427C105.446 39.4381 104.883 38.2508 104.548 36.8808C104.213 35.5108 104.046 34.0039 104.046 32.3599V18.9799H110.85V31.5379C110.85 33.7299 111.139 35.3129 111.718 36.2871C112.296 37.2613 113.377 37.7484 114.96 37.7484C115.447 37.7484 115.965 37.7332 116.513 37.7028C117.061 37.6419 117.548 37.581 117.974 37.5201V18.9799H124.778V42.178ZM137.969 43H131.165V18.9799H137.969V43ZM138.609 12.0387C138.609 13.2869 138.198 14.2763 137.376 15.007C136.584 15.7072 135.64 16.0573 134.545 16.0573C133.449 16.0573 132.49 15.7072 131.668 15.007C130.876 14.2763 130.48 13.2869 130.48 12.0387C130.48 10.7905 130.876 9.81629 131.668 9.11608C132.49 8.38543 133.449 8.02011 134.545 8.02011C135.64 8.02011 136.584 8.38543 137.376 9.11608C138.198 9.81629 138.609 10.7905 138.609 12.0387ZM162.403 23.5464C161.855 24.1553 161.11 24.9773 160.166 26.0124C159.252 27.0475 158.263 28.1891 157.198 29.4373C156.132 30.6855 155.051 31.9946 153.955 33.3645C152.89 34.7345 151.916 36.0588 151.033 37.3375H162.632V43H142.767V38.9814C143.407 37.8854 144.168 36.7134 145.05 35.4652C145.964 34.1865 146.908 32.9079 147.882 31.6293C148.886 30.3506 149.876 29.1176 150.85 27.9303C151.824 26.7126 152.722 25.6166 153.544 24.6424H143.315V18.9799H162.403V23.5464ZM193.056 43.6393C187.911 43.6393 183.984 42.2085 181.274 39.3467C178.595 36.485 177.255 32.4208 177.255 27.154C177.255 24.5359 177.666 22.2069 178.488 20.1672C179.31 18.097 180.437 16.3617 181.868 14.9613C183.299 13.5304 185.003 12.4497 186.982 11.719C188.961 10.9884 191.107 10.623 193.421 10.623C194.761 10.623 195.978 10.7296 197.074 10.9427C198.17 11.1254 199.129 11.3537 199.951 11.6277C200.773 11.8712 201.458 12.13 202.006 12.404C202.554 12.678 202.95 12.8911 203.194 13.0433L201.139 18.7972C200.164 18.2797 199.023 17.8382 197.714 17.4729C196.435 17.1076 194.974 16.9249 193.33 16.9249C192.234 16.9249 191.153 17.1076 190.088 17.4729C189.052 17.8382 188.124 18.4319 187.302 19.2539C186.51 20.0454 185.871 21.0805 185.384 22.3591C184.897 23.6378 184.653 25.1904 184.653 27.017C184.653 28.4783 184.806 29.8483 185.11 31.1269C185.445 32.3751 185.962 33.4559 186.663 34.3692C187.393 35.2825 188.337 36.0132 189.494 36.5611C190.651 37.0787 192.051 37.3375 193.695 37.3375C194.73 37.3375 195.659 37.2766 196.481 37.1548C197.303 37.033 198.033 36.896 198.673 36.7438C199.312 36.5611 199.875 36.3633 200.362 36.1502C200.849 35.937 201.291 35.7392 201.687 35.5565L203.65 41.2647C202.646 41.8736 201.23 42.4216 199.403 42.9087C197.577 43.3958 195.461 43.6393 193.056 43.6393ZM217.405 38.2508C218.075 38.2508 218.714 38.2355 219.323 38.2051C219.932 38.1747 220.419 38.129 220.784 38.0681V32.9079C220.51 32.847 220.099 32.7861 219.551 32.7252C219.003 32.6643 218.501 32.6339 218.044 32.6339C217.405 32.6339 216.796 32.6796 216.218 32.7709C215.67 32.8318 215.182 32.9688 214.756 33.1819C214.33 33.395 213.995 33.6842 213.752 34.0495C213.508 34.4149 213.386 34.8715 213.386 35.4195C213.386 36.485 213.736 37.2309 214.437 37.6571C215.167 38.0529 216.157 38.2508 217.405 38.2508ZM216.857 18.3405C218.866 18.3405 220.541 18.5689 221.88 19.0255C223.22 19.4822 224.285 20.1367 225.077 20.9892C225.899 21.8416 226.477 22.8767 226.812 24.0944C227.147 25.3122 227.314 26.6669 227.314 28.1587V42.315C226.34 42.5281 224.985 42.7717 223.25 43.0457C221.515 43.3501 219.414 43.5023 216.948 43.5023C215.396 43.5023 213.98 43.3653 212.701 43.0913C211.453 42.8173 210.372 42.3759 209.459 41.767C208.546 41.1277 207.845 40.3057 207.358 39.3011C206.871 38.2964 206.628 37.0635 206.628 35.6022C206.628 34.2017 206.902 33.0144 207.45 32.0402C208.028 31.066 208.789 30.2897 209.733 29.7113C210.677 29.1329 211.758 28.7219 212.975 28.4783C214.193 28.2043 215.456 28.0673 216.766 28.0673C217.648 28.0673 218.425 28.113 219.094 28.2043C219.795 28.2652 220.358 28.3565 220.784 28.4783V27.839C220.784 26.6821 220.434 25.7536 219.734 25.0534C219.034 24.3532 217.816 24.0031 216.081 24.0031C214.924 24.0031 213.782 24.0944 212.656 24.2771C211.529 24.4293 210.555 24.6576 209.733 24.9621L208.865 19.4822C209.261 19.3604 209.748 19.2386 210.327 19.1169C210.936 18.9646 211.59 18.8429 212.29 18.7515C212.99 18.6298 213.721 18.5384 214.482 18.4775C215.274 18.3862 216.065 18.3405 216.857 18.3405ZM240.363 38.1138C241.611 38.1138 242.494 37.992 243.011 37.7484C243.529 37.5049 243.787 37.033 243.787 36.3328C243.787 35.7848 243.453 35.3129 242.783 34.9172C242.113 34.491 241.093 34.0191 239.723 33.5015C238.658 33.1058 237.683 32.6948 236.801 32.2686C235.948 31.8424 235.218 31.34 234.609 30.7616C234 30.1527 233.528 29.4373 233.193 28.6153C232.858 27.7933 232.691 26.8039 232.691 25.647C232.691 23.3942 233.528 21.6132 235.202 20.3042C236.877 18.9951 239.175 18.3405 242.098 18.3405C243.559 18.3405 244.96 18.4775 246.299 18.7515C247.639 18.9951 248.704 19.2691 249.496 19.5735L248.308 24.8707C247.517 24.5967 246.649 24.3532 245.705 24.1401C244.792 23.927 243.757 23.8204 242.6 23.8204C240.469 23.8204 239.404 24.4141 239.404 25.6014C239.404 25.8754 239.449 26.1189 239.541 26.332C239.632 26.5451 239.815 26.7582 240.089 26.9714C240.363 27.154 240.728 27.3671 241.185 27.6107C241.672 27.8238 242.281 28.0673 243.011 28.3413C244.503 28.8893 245.736 29.4373 246.71 29.9853C247.684 30.5028 248.445 31.0813 248.993 31.7206C249.572 32.3295 249.968 33.0144 250.181 33.7755C250.424 34.5366 250.546 35.4195 250.546 36.4241C250.546 38.7988 249.648 40.5949 247.852 41.8127C246.086 43.0304 243.574 43.6393 240.317 43.6393C238.186 43.6393 236.405 43.4567 234.974 43.0913C233.574 42.726 232.599 42.4216 232.051 42.178L233.193 36.6525C234.35 37.1091 235.537 37.4745 236.755 37.7484C237.973 37.992 239.175 38.1138 240.363 38.1138ZM255.631 43V8.65942L262.435 7.56345V19.0712C262.892 18.919 263.47 18.782 264.17 18.6602C264.901 18.508 265.601 18.4319 266.271 18.4319C268.219 18.4319 269.833 18.7059 271.112 19.2539C272.421 19.7714 273.456 20.5173 274.217 21.4915C275.008 22.4657 275.556 23.6225 275.861 24.9621C276.196 26.3016 276.363 27.7933 276.363 29.4373V43H269.559V30.2593C269.559 28.0673 269.27 26.5147 268.691 25.6014C268.143 24.6881 267.108 24.2314 265.586 24.2314C264.977 24.2314 264.399 24.2923 263.851 24.4141C263.333 24.5054 262.861 24.612 262.435 24.7337V43H255.631Z" fill="url(#paint1_linear_201_108)"/>
<defs>
<linearGradient id="paint0_linear_201_108" x1="18" y1="13.5" x2="80" y2="66.5" gradientUnits="userSpaceOnUse">
<stop stop-color="#3550DC"/>
<stop offset="0.924686" stop-color="#27E9F7"/>
</linearGradient>
<linearGradient id="paint1_linear_201_108" x1="-12.1133" y1="-18.46" x2="79.0433" y2="224.107" gradientUnits="userSpaceOnUse">
<stop stop-color="#3550DC"/>
<stop offset="1" stop-color="#27E9F7"/>
</linearGradient>
</defs>
</svg>
