<svg width="350" height="90" viewBox="0 0 350 90" fill="none" xmlns="http://www.w3.org/2000/svg">
<rect x="1.53548" y="0.975668" width="347.489" height="87.7678" rx="8.06031" fill="white" stroke="url(#paint0_linear_38_169)" stroke-width="1.79118"/>
<path d="M132.184 38.0619C130.14 38.0619 128.573 38.702 127.484 39.9821C126.414 41.2431 125.879 43.0008 125.879 45.2553C125.879 46.3253 126.003 47.3092 126.252 48.2072C126.519 49.0861 126.901 49.8407 127.398 50.4712C127.914 51.1017 128.544 51.5985 129.289 51.9615C130.054 52.3054 130.942 52.4774 131.955 52.4774C132.585 52.4774 133.13 52.4583 133.588 52.42C134.047 52.3627 134.41 52.2959 134.677 52.2194V45.0834H138.288V54.6268C137.792 54.8178 136.951 55.028 135.766 55.2573C134.582 55.4865 133.216 55.6012 131.668 55.6012C130.235 55.6012 128.926 55.3719 127.742 54.9134C126.557 54.4548 125.545 53.7861 124.704 52.9072C123.882 52.0284 123.242 50.9489 122.784 49.6688C122.325 48.3887 122.096 46.9175 122.096 45.2553C122.096 43.5931 122.344 42.122 122.841 40.8419C123.357 39.5618 124.054 38.4823 124.933 37.6034C125.812 36.7054 126.844 36.0272 128.028 35.5686C129.213 35.1101 130.474 34.8808 131.811 34.8808C132.728 34.8808 133.54 34.9477 134.247 35.0814C134.973 35.1961 135.594 35.3298 136.11 35.4826C136.626 35.6355 137.046 35.7979 137.371 35.9698C137.715 36.1418 137.954 36.266 138.088 36.3424L136.999 39.2943C136.425 38.9504 135.709 38.6638 134.849 38.4345C134.009 38.1861 133.12 38.0619 132.184 38.0619ZM155.845 47.6913C155.845 48.8759 155.673 49.9554 155.329 50.9298C154.985 51.9042 154.498 52.7353 153.868 53.4231C153.237 54.1109 152.473 54.6459 151.575 55.028C150.696 55.4101 149.722 55.6012 148.652 55.6012C147.582 55.6012 146.607 55.4101 145.729 55.028C144.85 54.6459 144.095 54.1109 143.465 53.4231C142.834 52.7353 142.337 51.9042 141.974 50.9298C141.63 49.9554 141.458 48.8759 141.458 47.6913C141.458 46.5068 141.63 45.4368 141.974 44.4815C142.337 43.5071 142.834 42.676 143.465 41.9882C144.114 41.3004 144.878 40.775 145.757 40.412C146.636 40.0299 147.601 39.8388 148.652 39.8388C149.703 39.8388 150.667 40.0299 151.546 40.412C152.444 40.775 153.209 41.3004 153.839 41.9882C154.47 42.676 154.957 43.5071 155.301 44.4815C155.664 45.4368 155.845 46.5068 155.845 47.6913ZM152.291 47.6913C152.291 46.2011 151.967 45.0261 151.317 44.1663C150.687 43.2874 149.798 42.848 148.652 42.848C147.505 42.848 146.607 43.2874 145.958 44.1663C145.327 45.0261 145.012 46.2011 145.012 47.6913C145.012 49.2007 145.327 50.3948 145.958 51.2737C146.607 52.1526 147.505 52.592 148.652 52.592C149.798 52.592 150.687 52.1526 151.317 51.2737C151.967 50.3948 152.291 49.2007 152.291 47.6913ZM172.973 47.6913C172.973 48.8759 172.801 49.9554 172.457 50.9298C172.114 51.9042 171.626 52.7353 170.996 53.4231C170.365 54.1109 169.601 54.6459 168.703 55.028C167.824 55.4101 166.85 55.6012 165.78 55.6012C164.71 55.6012 163.736 55.4101 162.857 55.028C161.978 54.6459 161.223 54.1109 160.593 53.4231C159.962 52.7353 159.465 51.9042 159.102 50.9298C158.759 49.9554 158.587 48.8759 158.587 47.6913C158.587 46.5068 158.759 45.4368 159.102 44.4815C159.465 43.5071 159.962 42.676 160.593 41.9882C161.242 41.3004 162.007 40.775 162.885 40.412C163.764 40.0299 164.729 39.8388 165.78 39.8388C166.831 39.8388 167.796 40.0299 168.675 40.412C169.572 40.775 170.337 41.3004 170.967 41.9882C171.598 42.676 172.085 43.5071 172.429 44.4815C172.792 45.4368 172.973 46.5068 172.973 47.6913ZM169.42 47.6913C169.42 46.2011 169.095 45.0261 168.445 44.1663C167.815 43.2874 166.926 42.848 165.78 42.848C164.634 42.848 163.736 43.2874 163.086 44.1663C162.456 45.0261 162.14 46.2011 162.14 47.6913C162.14 49.2007 162.456 50.3948 163.086 51.2737C163.736 52.1526 164.634 52.592 165.78 52.592C166.926 52.592 167.815 52.1526 168.445 51.2737C169.095 50.3948 169.42 49.2007 169.42 47.6913ZM179.268 47.3188C179.268 48.7899 179.584 49.8694 180.214 50.5572C180.864 51.2259 181.695 51.5603 182.708 51.5603C183.262 51.5603 183.777 51.4839 184.255 51.331C184.752 51.1782 185.153 50.9966 185.459 50.7865V43.0199C185.21 42.9626 184.905 42.9148 184.542 42.8766C184.179 42.8193 183.72 42.7907 183.166 42.7907C181.905 42.7907 180.94 43.211 180.272 44.0516C179.603 44.8732 179.268 45.9622 179.268 47.3188ZM188.926 53.681C188.926 56.0693 188.315 57.8175 187.092 58.9256C185.889 60.0337 184.035 60.5878 181.533 60.5878C180.615 60.5878 179.717 60.5114 178.839 60.3585C177.979 60.2057 177.195 60.0051 176.489 59.7567L177.119 56.8048C177.711 57.0532 178.38 57.2538 179.125 57.4067C179.889 57.5595 180.711 57.636 181.59 57.636C182.985 57.636 183.978 57.3494 184.57 56.7762C185.163 56.203 185.459 55.3528 185.459 54.2255V53.6524C185.115 53.8243 184.656 53.9963 184.083 54.1682C183.529 54.3402 182.889 54.4262 182.163 54.4262C181.208 54.4262 180.329 54.2733 179.526 53.9676C178.743 53.6619 178.065 53.2129 177.492 52.6207C176.938 52.0284 176.498 51.2928 176.173 50.4139C175.868 49.5159 175.715 48.4842 175.715 47.3188C175.715 46.2297 175.877 45.2267 176.202 44.3096C176.546 43.3925 177.033 42.6092 177.664 41.9596C178.313 41.31 179.096 40.8036 180.014 40.4406C180.931 40.0776 181.972 39.8961 183.137 39.8961C184.265 39.8961 185.335 39.9821 186.347 40.154C187.36 40.326 188.22 40.5075 188.926 40.6986V53.681ZM198.554 55.4865C197.522 55.4674 196.663 55.3528 195.975 55.1426C195.306 54.9325 194.771 54.6363 194.37 54.2542C193.969 53.853 193.682 53.3658 193.51 52.7926C193.357 52.2003 193.281 51.5316 193.281 50.7865V33.5338L196.749 32.9607V50.1273C196.749 50.5477 196.777 50.9011 196.835 51.1877C196.911 51.4743 197.035 51.7227 197.207 51.9328C197.379 52.1239 197.608 52.2767 197.895 52.3914C198.201 52.4869 198.583 52.5633 199.041 52.6207L198.554 55.4865ZM201.015 47.7773C201.015 46.459 201.206 45.3031 201.588 44.3096C201.99 43.3161 202.515 42.4945 203.165 41.8449C203.814 41.1762 204.559 40.6795 205.4 40.3547C206.241 40.0107 207.1 39.8388 207.979 39.8388C210.043 39.8388 211.648 40.4788 212.794 41.7589C213.959 43.039 214.542 44.9496 214.542 47.4907C214.542 47.6818 214.533 47.9015 214.513 48.1499C214.513 48.3791 214.504 48.5893 214.485 48.7804H204.598C204.693 49.984 205.113 50.9202 205.859 51.5889C206.623 52.2385 207.721 52.5633 209.154 52.5633C209.995 52.5633 210.759 52.4869 211.447 52.3341C212.154 52.1812 212.708 52.0188 213.109 51.8469L213.568 54.6841C213.377 54.7796 213.109 54.8847 212.765 54.9993C212.44 55.0949 212.058 55.1808 211.619 55.2573C211.199 55.3528 210.74 55.4292 210.243 55.4865C209.747 55.5439 209.24 55.5725 208.724 55.5725C207.406 55.5725 206.26 55.3815 205.285 54.9993C204.311 54.5981 203.508 54.0536 202.878 53.3658C202.247 52.6589 201.779 51.8373 201.474 50.9011C201.168 49.9458 201.015 48.9046 201.015 47.7773ZM211.074 46.2297C211.074 45.7521 211.008 45.3031 210.874 44.8828C210.74 44.4433 210.539 44.0708 210.272 43.7651C210.024 43.4403 209.708 43.1919 209.326 43.0199C208.963 42.8289 208.524 42.7333 208.008 42.7333C207.473 42.7333 207.005 42.8384 206.604 43.0486C206.202 43.2396 205.859 43.4976 205.572 43.8224C205.304 44.1472 205.094 44.5197 204.941 44.9401C204.789 45.3604 204.683 45.7903 204.626 46.2297H211.074ZM234.852 47.7773C234.852 46.2297 234.499 45.0261 233.792 44.1663C233.104 43.3065 231.986 42.8766 230.439 42.8766C230.114 42.8766 229.77 42.8957 229.407 42.934C229.063 42.9531 228.719 43.0104 228.375 43.1059V51.6749C228.681 51.8851 229.082 52.0857 229.579 52.2767C230.095 52.4487 230.639 52.5347 231.213 52.5347C232.474 52.5347 233.391 52.1048 233.964 51.245C234.556 50.3853 234.852 49.2294 234.852 47.7773ZM238.406 47.72C238.406 48.8663 238.253 49.9172 237.947 50.8725C237.661 51.8278 237.241 52.6493 236.687 53.3371C236.132 54.0249 235.435 54.5599 234.594 54.942C233.773 55.3241 232.837 55.5152 231.786 55.5152C231.079 55.5152 230.429 55.4292 229.837 55.2573C229.245 55.0853 228.758 54.8943 228.375 54.6841V60.5018H224.908V40.6986C225.615 40.5075 226.484 40.326 227.516 40.154C228.547 39.9821 229.636 39.8961 230.783 39.8961C231.967 39.8961 233.028 40.0776 233.964 40.4406C234.9 40.8036 235.693 41.3291 236.343 42.0169C237.011 42.6856 237.518 43.5071 237.862 44.4815C238.225 45.4368 238.406 46.5163 238.406 47.72ZM247.196 55.4865C246.164 55.4674 245.304 55.3528 244.617 55.1426C243.948 54.9325 243.413 54.6363 243.012 54.2542C242.61 53.853 242.324 53.3658 242.152 52.7926C241.999 52.2003 241.923 51.5316 241.923 50.7865V33.5338L245.39 32.9607V50.1273C245.39 50.5477 245.419 50.9011 245.476 51.1877C245.553 51.4743 245.677 51.7227 245.849 51.9328C246.021 52.1239 246.25 52.2767 246.537 52.3914C246.842 52.4869 247.224 52.5633 247.683 52.6207L247.196 55.4865ZM255.761 52.7639C256.831 52.7639 257.643 52.7066 258.197 52.592V48.7517C258.006 48.6944 257.729 48.6371 257.366 48.5798C257.003 48.5224 256.602 48.4938 256.162 48.4938C255.78 48.4938 255.389 48.5224 254.987 48.5798C254.605 48.6371 254.252 48.7422 253.927 48.895C253.621 49.0478 253.373 49.2676 253.182 49.5542C252.991 49.8216 252.895 50.1655 252.895 50.5859C252.895 51.4074 253.153 51.9806 253.669 52.3054C254.185 52.6111 254.882 52.7639 255.761 52.7639ZM255.475 39.8388C256.621 39.8388 257.586 39.9821 258.369 40.2687C259.153 40.5553 259.773 40.9565 260.232 41.4724C260.71 41.9882 261.044 42.6187 261.235 43.3638C261.445 44.0899 261.55 44.8923 261.55 45.7712V54.856C261.015 54.9707 260.203 55.1044 259.114 55.2573C258.044 55.4292 256.831 55.5152 255.475 55.5152C254.577 55.5152 253.755 55.4292 253.01 55.2573C252.265 55.0853 251.625 54.8083 251.09 54.4262C250.574 54.044 250.163 53.5473 249.857 52.9359C249.571 52.3245 249.428 51.5698 249.428 50.6718C249.428 49.8121 249.59 49.0861 249.915 48.4938C250.259 47.9015 250.717 47.4238 251.29 47.0608C251.864 46.6787 252.523 46.4112 253.268 46.2584C254.032 46.0864 254.825 46.0005 255.647 46.0005C256.029 46.0005 256.43 46.0291 256.85 46.0864C257.271 46.1246 257.72 46.2011 258.197 46.3157V45.7425C258.197 45.3413 258.149 44.9592 258.054 44.5962C257.958 44.2332 257.786 43.9179 257.538 43.6504C257.309 43.3638 256.994 43.1441 256.592 42.9913C256.21 42.8384 255.723 42.762 255.131 42.762C254.328 42.762 253.593 42.8193 252.924 42.934C252.255 43.0486 251.711 43.1823 251.29 43.3352L250.861 40.5266C251.3 40.3738 251.94 40.2209 252.781 40.0681C253.621 39.9152 254.519 39.8388 255.475 39.8388ZM277.67 40.2114C276.123 45.9049 274.327 51.0635 272.283 55.6872C271.9 56.5469 271.509 57.2825 271.108 57.8939C270.706 58.5053 270.257 59.0116 269.761 59.4128C269.264 59.814 268.71 60.1006 268.098 60.2726C267.487 60.4636 266.78 60.5592 265.978 60.5592C265.443 60.5592 264.908 60.5018 264.373 60.3872C263.857 60.2726 263.465 60.1484 263.198 60.0146L263.828 57.2347C264.516 57.5022 265.194 57.636 265.863 57.636C266.761 57.636 267.458 57.4162 267.955 56.9768C268.471 56.5565 268.92 55.8973 269.302 54.9993C268.213 52.8977 267.162 50.605 266.15 48.1212C265.156 45.6374 264.268 43.0008 263.484 40.2114H267.181C267.372 41.0138 267.602 41.8831 267.869 42.8193C268.156 43.7555 268.461 44.7108 268.786 45.6852C269.111 46.6405 269.455 47.5958 269.818 48.5511C270.181 49.5064 270.544 50.3948 270.907 51.2164C271.518 49.5159 272.092 47.7104 272.627 45.7998C273.161 43.8701 273.649 42.0073 274.088 40.2114H277.67Z" fill="url(#paint1_linear_38_169)"/>
<g clip-path="url(#clip0_38_169)">
<path d="M98.9373 38.4391C94.4671 35.9389 87.2924 31.9241 76.1638 25.693C75.4135 25.1975 74.5503 25.1325 73.8044 25.385L92.8979 44.4785L98.9373 38.4391Z" fill="#32BBFF"/>
<path d="M73.8045 25.385C73.6647 25.4324 73.5287 25.4895 73.3986 25.5585C72.575 26.004 71.9697 26.8613 71.9697 27.9456V61.0114C71.9697 62.0957 72.5749 62.953 73.3986 63.3984C73.5285 63.4674 73.6644 63.5247 73.8041 63.5723L92.898 44.4785L73.8045 25.385Z" fill="#32BBFF"/>
<path d="M92.8981 44.4785L73.8042 63.5724C74.5503 63.8267 75.4135 63.7667 76.164 63.264C86.9563 57.2207 94.0502 53.2535 98.5721 50.732C98.698 50.6613 98.8213 50.5921 98.9432 50.5236L92.8981 44.4785Z" fill="#32BBFF"/>
<path d="M71.873 41.1339V57.6668C71.873 58.7511 72.4782 59.6084 73.3019 60.0539C73.4318 60.1228 73.5677 60.1801 73.7074 60.2278L92.8013 41.1339H71.873Z" fill="#2C9FD9"/>
<path d="M76.1642 25.693C75.2733 25.1047 74.2226 25.1215 73.3989 25.5586L92.6085 44.7682L98.9376 38.4392C94.4675 35.9389 87.2928 31.9242 76.1642 25.693Z" fill="#29CC5E"/>
<path d="M92.6087 44.1888L73.3989 63.3984C74.2226 63.8355 75.2733 63.8607 76.1642 63.264C86.9565 57.2207 94.0504 53.2535 98.5723 50.732C98.6981 50.6612 98.8215 50.5921 98.9434 50.5236L92.6087 44.1888Z" fill="#D93F21"/>
<path d="M106.91 44.4785C106.91 43.5624 106.448 42.6378 105.531 42.1251C105.531 42.1251 103.818 41.169 98.5658 38.2313L92.3186 44.4785L98.5719 50.7319C103.766 47.8153 105.531 46.8319 105.531 46.8319C106.448 46.3193 106.91 45.3947 106.91 44.4785Z" fill="#FFD500"/>
<path d="M105.531 46.832C106.448 46.3192 106.91 45.3947 106.91 44.4785H92.3186L98.5719 50.7319C103.766 47.8154 105.531 46.832 105.531 46.832Z" fill="#FFAA00"/>
</g>
<defs>
<linearGradient id="paint0_linear_38_169" x1="-124.635" y1="-31.7134" x2="39.2933" y2="379.747" gradientUnits="userSpaceOnUse">
<stop stop-color="#3550DC"/>
<stop offset="1" stop-color="#27E9F7"/>
</linearGradient>
<linearGradient id="paint1_linear_38_169" x1="63.8504" y1="16.4849" x2="115.43" y2="175.423" gradientUnits="userSpaceOnUse">
<stop stop-color="#3550DC"/>
<stop offset="1" stop-color="#27E9F7"/>
</linearGradient>
<clipPath id="clip0_38_169">
<rect width="38.48" height="38.48" fill="white" transform="translate(70.2 25.24)"/>
</clipPath>
</defs>
</svg>
