<svg width="269" height="160" viewBox="0 0 269 160" fill="none" xmlns="http://www.w3.org/2000/svg">
<g clip-path="url(#clip0_126_1524)">
<rect width="268.522" height="160" rx="9.73913" fill="#157FF3"/>
<path d="M13.7107 28.6455V26.8778H15.0728V28.6455H13.7107ZM13.7107 16.3638V14.5885H15.0728V16.3638H13.7107ZM14.4989 27.3599C13.7541 27.3599 13.0833 27.2273 12.4864 26.962C11.8946 26.6916 11.4074 26.3116 11.0248 25.8218C10.6422 25.327 10.3922 24.7454 10.2749 24.0772L11.614 23.8552C11.7773 24.5337 12.1216 25.0719 12.6471 25.4698C13.1776 25.8678 13.8153 26.0667 14.5601 26.0667C15.31 26.0667 15.9171 25.8856 16.3813 25.5234C16.8456 25.1612 17.0777 24.6944 17.0777 24.1231C17.0777 23.7047 16.9527 23.3681 16.7027 23.113C16.4579 22.8579 16.0446 22.6411 15.4631 22.4625L12.9455 21.682C11.4406 21.2127 10.6881 20.3148 10.6881 18.9885C10.6881 18.3661 10.8386 17.8228 11.1396 17.3585C11.4457 16.8892 11.8717 16.527 12.4175 16.2719C12.9685 16.0118 13.6087 15.8842 14.3382 15.8893C15.0473 15.8944 15.6799 16.0271 16.236 16.2872C16.792 16.5423 17.2511 16.9096 17.6133 17.3892C17.9806 17.8687 18.2281 18.4426 18.3556 19.1109L16.9782 19.3634C16.9068 18.9298 16.7486 18.5497 16.5038 18.2232C16.264 17.8967 15.9579 17.6442 15.5855 17.4657C15.2131 17.282 14.7948 17.1876 14.3306 17.1825C13.8969 17.1774 13.5067 17.2489 13.1598 17.3968C12.818 17.5447 12.5476 17.7514 12.3486 18.0166C12.1497 18.2819 12.0502 18.5854 12.0502 18.9272C12.0502 19.2996 12.188 19.6159 12.4634 19.8761C12.744 20.1312 13.1827 20.3505 13.7796 20.5342L15.8457 21.1464C16.7538 21.4167 17.4093 21.7815 17.8123 22.2406C18.2153 22.6947 18.4168 23.3017 18.4168 24.0618C18.4168 24.7199 18.2536 25.2964 17.9271 25.7912C17.6057 26.2861 17.1491 26.6712 16.5573 26.9467C15.9707 27.2222 15.2845 27.3599 14.4989 27.3599ZM24.1562 27.3599C23.4522 27.3599 22.8298 27.2196 22.2891 26.9391C21.7483 26.6534 21.3249 26.258 21.0188 25.753C20.7127 25.2479 20.5597 24.6587 20.5597 23.9853C20.5597 23.3272 20.7153 22.7329 21.0265 22.2024C21.3428 21.6718 21.8172 21.2637 22.4498 20.978L22.4268 21.4754C21.9116 21.2254 21.5162 20.8734 21.2407 20.4194C20.9653 19.9603 20.8275 19.4527 20.8275 18.8966C20.8275 18.2743 20.9704 17.7386 21.256 17.2897C21.5417 16.8407 21.9345 16.4938 22.4345 16.249C22.9344 16.0041 23.5083 15.8817 24.1562 15.8817C24.8041 15.8817 25.378 16.0041 25.878 16.249C26.3779 16.4938 26.7707 16.8407 27.0564 17.2897C27.3421 17.7386 27.4849 18.2743 27.4849 18.8966C27.4849 19.4527 27.3548 19.9577 27.0946 20.4118C26.8345 20.8607 26.434 21.2152 25.8933 21.4754L25.8626 20.9857C26.4952 21.2612 26.9697 21.6667 27.286 22.2024C27.6073 22.7329 27.768 23.3272 27.768 23.9853C27.768 24.6587 27.6124 25.2479 27.3013 25.753C26.9952 26.258 26.5692 26.6534 26.0233 26.9391C25.4826 27.2196 24.8602 27.3599 24.1562 27.3599ZM24.1562 26.0591C24.799 26.0591 25.3193 25.8831 25.7173 25.5311C26.1203 25.174 26.3218 24.6587 26.3218 23.9853C26.3218 23.3068 26.1228 22.7916 25.7249 22.4396C25.3321 22.0825 24.8092 21.9039 24.1562 21.9039C23.5083 21.9039 22.9854 22.0825 22.5875 22.4396C22.1947 22.7916 21.9983 23.3068 21.9983 23.9853C21.9983 24.6587 22.1973 25.174 22.5952 25.5311C22.9931 25.8831 23.5134 26.0591 24.1562 26.0591ZM24.1562 20.5954C24.7174 20.5954 25.1714 20.4551 25.5183 20.1745C25.8652 19.8889 26.0386 19.4629 26.0386 18.8966C26.0386 18.3304 25.8652 17.907 25.5183 17.6264C25.1714 17.3407 24.7174 17.1978 24.1562 17.1978C23.6002 17.1978 23.1461 17.3407 22.7941 17.6264C22.4472 17.907 22.2738 18.3304 22.2738 18.8966C22.2738 19.4629 22.4472 19.8889 22.7941 20.1745C23.1461 20.4551 23.6002 20.5954 24.1562 20.5954ZM34.0547 15.8893C34.7587 15.8893 35.3938 16.0577 35.9601 16.3944C36.5263 16.7311 36.9753 17.1902 37.3069 17.7718C37.6435 18.3533 37.8119 19.014 37.8119 19.7537V23.4191C37.8119 24.1894 37.6461 24.8704 37.3145 25.4622C36.9829 26.054 36.5238 26.5182 35.9371 26.8549C35.3555 27.1916 34.6873 27.3599 33.9322 27.3599C33.3303 27.3599 32.7666 27.235 32.2411 26.985C31.7208 26.735 31.2795 26.3805 30.9173 25.9213L31.935 25.0184C32.1595 25.3347 32.4477 25.5897 32.7997 25.7836C33.1517 25.9723 33.5292 26.0667 33.9322 26.0667C34.422 26.0667 34.8531 25.9494 35.2255 25.7147C35.603 25.4801 35.8963 25.174 36.1055 24.7965C36.3197 24.419 36.4269 24.0108 36.4269 23.5721V21.3606L36.7253 21.6973C36.409 22.1565 36.0034 22.5238 35.5086 22.7992C35.0138 23.0747 34.4755 23.2125 33.894 23.2125C33.2104 23.2125 32.5982 23.0518 32.0575 22.7304C31.5167 22.409 31.0882 21.9754 30.7719 21.4295C30.4556 20.8785 30.2975 20.2613 30.2975 19.5777C30.2975 18.8941 30.4684 18.2743 30.8102 17.7182C31.152 17.157 31.606 16.7132 32.1722 16.3867C32.7436 16.0551 33.3711 15.8893 34.0547 15.8893ZM34.0547 17.2055C33.616 17.2055 33.2155 17.3126 32.8533 17.5269C32.4962 17.7361 32.2105 18.0217 31.9962 18.3839C31.782 18.741 31.6749 19.139 31.6749 19.5777C31.6749 20.0164 31.7794 20.4169 31.9886 20.7791C32.2029 21.1362 32.4885 21.4218 32.8456 21.6361C33.2078 21.8504 33.6083 21.9575 34.047 21.9575C34.4858 21.9575 34.8862 21.8504 35.2484 21.6361C35.6106 21.4218 35.8963 21.1362 36.1055 20.7791C36.3197 20.4169 36.4269 20.0164 36.4269 19.5777C36.4269 19.1441 36.3197 18.7487 36.1055 18.3916C35.8963 18.0294 35.6106 17.7412 35.2484 17.5269C34.8913 17.3126 34.4934 17.2055 34.0547 17.2055ZM40.2594 28.8445L40.3436 28.2093C40.5579 28.2246 40.7185 28.1838 40.8257 28.0869C40.9328 27.99 41.0017 27.8573 41.0323 27.689C41.0629 27.5206 41.068 27.3344 41.0476 27.1304H40.2594V25.401H41.7592V27.3599C41.7592 27.8956 41.6266 28.2986 41.3613 28.569C41.1012 28.8394 40.7339 28.9312 40.2594 28.8445ZM48.9718 15.8893C49.6758 15.8893 50.3109 16.0577 50.8772 16.3944C51.4435 16.7311 51.8924 17.1902 52.224 17.7718C52.5607 18.3533 52.729 19.014 52.729 19.7537V23.4191C52.729 24.1894 52.5632 24.8704 52.2316 25.4622C51.9 26.054 51.4409 26.5182 50.8542 26.8549C50.2727 27.1916 49.6044 27.3599 48.8494 27.3599C48.2474 27.3599 47.6837 27.235 47.1582 26.985C46.6379 26.735 46.1966 26.3805 45.8344 25.9213L46.8521 25.0184C47.0766 25.3347 47.3648 25.5897 47.7168 25.7836C48.0688 25.9723 48.4464 26.0667 48.8494 26.0667C49.3391 26.0667 49.7702 25.9494 50.1426 25.7147C50.5201 25.4801 50.8134 25.174 51.0226 24.7965C51.2368 24.419 51.344 24.0108 51.344 23.5721V21.3606L51.6424 21.6973C51.3261 22.1565 50.9206 22.5238 50.4257 22.7992C49.9309 23.0747 49.3927 23.2125 48.8111 23.2125C48.1275 23.2125 47.5153 23.0518 46.9746 22.7304C46.4338 22.409 46.0053 21.9754 45.689 21.4295C45.3727 20.8785 45.2146 20.2613 45.2146 19.5777C45.2146 18.8941 45.3855 18.2743 45.7273 17.7182C46.0691 17.157 46.5231 16.7132 47.0894 16.3867C47.6607 16.0551 48.2882 15.8893 48.9718 15.8893ZM48.9718 17.2055C48.5331 17.2055 48.1326 17.3126 47.7704 17.5269C47.4133 17.7361 47.1276 18.0217 46.9134 18.3839C46.6991 18.741 46.592 19.139 46.592 19.5777C46.592 20.0164 46.6966 20.4169 46.9057 20.7791C47.12 21.1362 47.4057 21.4218 47.7628 21.6361C48.125 21.8504 48.5254 21.9575 48.9641 21.9575C49.4029 21.9575 49.8033 21.8504 50.1655 21.6361C50.5277 21.4218 50.8134 21.1362 51.0226 20.7791C51.2368 20.4169 51.344 20.0164 51.344 19.5777C51.344 19.1441 51.2368 18.7487 51.0226 18.3916C50.8134 18.0294 50.5277 17.7412 50.1655 17.5269C49.8084 17.3126 49.4105 17.2055 48.9718 17.2055ZM58.8285 27.3599C58.2623 27.3599 57.7343 27.2426 57.2445 27.0079C56.7599 26.7733 56.3441 26.4519 55.9972 26.0438C55.6554 25.6305 55.4106 25.1561 55.2626 24.6205L56.5711 24.2685C56.663 24.6307 56.8262 24.9444 57.0609 25.2097C57.2956 25.4698 57.5685 25.6739 57.8797 25.8218C58.196 25.9647 58.525 26.0361 58.8668 26.0361C59.3157 26.0361 59.7187 25.929 60.0758 25.7147C60.438 25.4954 60.7237 25.2071 60.9329 24.85C61.142 24.4878 61.2466 24.0925 61.2466 23.6639C61.2466 23.2201 61.1369 22.8196 60.9176 22.4625C60.7033 22.1003 60.4151 21.8147 60.0529 21.6055C59.6907 21.3963 59.2953 21.2918 58.8668 21.2918C58.3822 21.2918 57.9664 21.3938 57.6195 21.5978C57.2777 21.7968 57.0073 22.0417 56.8084 22.3325L55.5993 21.8733L55.936 16.1112H61.8511V17.4045H56.5941L57.1986 16.8382L56.9155 21.4525L56.6171 21.0622C56.9231 20.7357 57.2879 20.4832 57.7113 20.3046C58.1398 20.1261 58.576 20.0368 59.0198 20.0368C59.7034 20.0368 60.3156 20.1975 60.8564 20.5189C61.3971 20.8352 61.8256 21.2688 62.1419 21.8198C62.4582 22.3656 62.6164 22.9803 62.6164 23.6639C62.6164 24.3424 62.4429 24.9623 62.096 25.5234C61.7491 26.0795 61.2874 26.5258 60.711 26.8625C60.1396 27.1941 59.5121 27.3599 58.8285 27.3599ZM68.861 27.3599C68.1468 27.3599 67.5092 27.1992 66.948 26.8778C66.3919 26.5514 65.9507 26.1101 65.6242 25.554C65.3028 24.9929 65.1421 24.3552 65.1421 23.641V19.6006C65.1421 18.8864 65.3028 18.2487 65.6242 17.6876C65.9507 17.1264 66.3919 16.6852 66.948 16.3638C67.5092 16.0424 68.1468 15.8817 68.861 15.8817C69.5752 15.8817 70.2129 16.0424 70.7741 16.3638C71.3352 16.6852 71.7765 17.1264 72.0979 17.6876C72.4193 18.2487 72.58 18.8864 72.58 19.6006V23.641C72.58 24.3552 72.4193 24.9929 72.0979 25.554C71.7765 26.1101 71.3352 26.5514 70.7741 26.8778C70.2129 27.1992 69.5752 27.3599 68.861 27.3599ZM68.861 26.0514C69.2947 26.0514 69.6875 25.9468 70.0395 25.7377C70.3915 25.5285 70.6721 25.2479 70.8812 24.8959C71.0904 24.5388 71.195 24.146 71.195 23.7175V19.5165C71.195 19.0828 71.0904 18.69 70.8812 18.338C70.6721 17.986 70.3915 17.7054 70.0395 17.4963C69.6875 17.2871 69.2947 17.1825 68.861 17.1825C68.4325 17.1825 68.0397 17.2871 67.6826 17.4963C67.3306 17.7054 67.05 17.986 66.8409 18.338C66.6317 18.69 66.5271 19.0828 66.5271 19.5165V23.7175C66.5271 24.146 66.6317 24.5388 66.8409 24.8959C67.05 25.2479 67.3306 25.5285 67.6826 25.7377C68.0397 25.9468 68.4325 26.0514 68.861 26.0514ZM75.6628 27.1304V25.6305H77.1626V27.1304H75.6628ZM83.9575 27.3599C83.2433 27.3599 82.6056 27.1992 82.0445 26.8778C81.4884 26.5514 81.0471 26.1101 80.7206 25.554C80.3992 24.9929 80.2385 24.3552 80.2385 23.641V19.6006C80.2385 18.8864 80.3992 18.2487 80.7206 17.6876C81.0471 17.1264 81.4884 16.6852 82.0445 16.3638C82.6056 16.0424 83.2433 15.8817 83.9575 15.8817C84.6717 15.8817 85.3094 16.0424 85.8705 16.3638C86.4317 16.6852 86.873 17.1264 87.1944 17.6876C87.5158 18.2487 87.6765 18.8864 87.6765 19.6006V23.641C87.6765 24.3552 87.5158 24.9929 87.1944 25.554C86.873 26.1101 86.4317 26.5514 85.8705 26.8778C85.3094 27.1992 84.6717 27.3599 83.9575 27.3599ZM83.9575 26.0514C84.3911 26.0514 84.7839 25.9468 85.1359 25.7377C85.4879 25.5285 85.7685 25.2479 85.9777 24.8959C86.1868 24.5388 86.2914 24.146 86.2914 23.7175V19.5165C86.2914 19.0828 86.1868 18.69 85.9777 18.338C85.7685 17.986 85.4879 17.7054 85.1359 17.4963C84.7839 17.2871 84.3911 17.1825 83.9575 17.1825C83.529 17.1825 83.1362 17.2871 82.7791 17.4963C82.4271 17.7054 82.1465 17.986 81.9373 18.338C81.7282 18.69 81.6236 19.0828 81.6236 19.5165V23.7175C81.6236 24.146 81.7282 24.5388 81.9373 24.8959C82.1465 25.2479 82.4271 25.5285 82.7791 25.7377C83.1362 25.9468 83.529 26.0514 83.9575 26.0514ZM94.2333 27.3599C93.5191 27.3599 92.8814 27.1992 92.3203 26.8778C91.7642 26.5514 91.3229 26.1101 90.9965 25.554C90.6751 24.9929 90.5144 24.3552 90.5144 23.641V19.6006C90.5144 18.8864 90.6751 18.2487 90.9965 17.6876C91.3229 17.1264 91.7642 16.6852 92.3203 16.3638C92.8814 16.0424 93.5191 15.8817 94.2333 15.8817C94.9475 15.8817 95.5852 16.0424 96.1464 16.3638C96.7075 16.6852 97.1488 17.1264 97.4702 17.6876C97.7916 18.2487 97.9523 18.8864 97.9523 19.6006V23.641C97.9523 24.3552 97.7916 24.9929 97.4702 25.554C97.1488 26.1101 96.7075 26.5514 96.1464 26.8778C95.5852 27.1992 94.9475 27.3599 94.2333 27.3599ZM94.2333 26.0514C94.6669 26.0514 95.0598 25.9468 95.4118 25.7377C95.7638 25.5285 96.0443 25.2479 96.2535 24.8959C96.4627 24.5388 96.5672 24.146 96.5672 23.7175V19.5165C96.5672 19.0828 96.4627 18.69 96.2535 18.338C96.0443 17.986 95.7638 17.7054 95.4118 17.4963C95.0598 17.2871 94.6669 17.1825 94.2333 17.1825C93.8048 17.1825 93.412 17.2871 93.0549 17.4963C92.7029 17.7054 92.4223 17.986 92.2131 18.338C92.004 18.69 91.8994 19.0828 91.8994 19.5165V23.7175C91.8994 24.146 92.004 24.5388 92.2131 24.8959C92.4223 25.2479 92.7029 25.5285 93.0549 25.7377C93.412 25.9468 93.8048 26.0514 94.2333 26.0514Z" fill="white"/>
<rect x="224" y="9.73914" width="34.7826" height="20.8696" rx="6.95652" fill="#8BBDFF"/>
<mask id="mask0_126_1524" style="mask-type:luminance" maskUnits="userSpaceOnUse" x="224" y="9" width="35" height="22">
<rect x="224" y="9.73914" width="34.7826" height="20.8696" rx="6.95652" fill="white"/>
</mask>
<g mask="url(#mask0_126_1524)">
</g>
<path d="M12.6193 78.7444L11.2523 77.7531L12.8697 75.7183L10.3653 74.9879L10.8871 73.3809L13.3288 74.2887L13.2349 71.6696H14.9253L14.8314 74.2887L17.2732 73.3809L17.7949 74.9879L15.2906 75.7183L16.8975 77.7531L15.5306 78.7444L14.0801 76.5948L12.6193 78.7444ZM22.6288 78.7444L21.2618 77.7531L22.8792 75.7183L20.3749 74.9879L20.8966 73.3809L23.3383 74.2887L23.2444 71.6696H24.9349L24.8409 74.2887L27.2827 73.3809L27.8044 74.9879L25.3001 75.7183L26.907 77.7531L25.5401 78.7444L24.0896 76.5948L22.6288 78.7444ZM32.6383 78.7444L31.2713 77.7531L32.8887 75.7183L30.3844 74.9879L30.9061 73.3809L33.3478 74.2887L33.2539 71.6696H34.9444L34.8504 74.2887L37.2922 73.3809L37.8139 74.9879L35.3096 75.7183L36.9165 77.7531L35.5496 78.7444L34.0991 76.5948L32.6383 78.7444ZM42.6478 78.7444L41.2808 77.7531L42.8982 75.7183L40.3939 74.9879L40.9156 73.3809L43.3574 74.2887L43.2634 71.6696H44.9539L44.86 74.2887L47.3017 73.3809L47.8234 74.9879L45.3191 75.7183L46.926 77.7531L45.5591 78.7444L44.1087 76.5948L42.6478 78.7444ZM67.2782 78.7444L65.9113 77.7531L67.5287 75.7183L65.0243 74.9879L65.546 73.3809L67.9878 74.2887L67.8939 71.6696H69.5843L69.4904 74.2887L71.9321 73.3809L72.4539 74.9879L69.9495 75.7183L71.5565 77.7531L70.1895 78.7444L68.7391 76.5948L67.2782 78.7444ZM77.2877 78.7444L75.9208 77.7531L77.5382 75.7183L75.0338 74.9879L75.5555 73.3809L77.9973 74.2887L77.9034 71.6696H79.5938L79.4999 74.2887L81.9416 73.3809L82.4634 74.9879L79.959 75.7183L81.566 77.7531L80.199 78.7444L78.7486 76.5948L77.2877 78.7444ZM87.2972 78.7444L85.9303 77.7531L87.5477 75.7183L85.0433 74.9879L85.5651 73.3809L88.0068 74.2887L87.9129 71.6696H89.6033L89.5094 74.2887L91.9511 73.3809L92.4729 74.9879L89.9685 75.7183L91.5755 77.7531L90.2085 78.7444L88.7581 76.5948L87.2972 78.7444ZM97.3067 78.7444L95.9398 77.7531L97.5572 75.7183L95.0528 74.9879L95.5746 73.3809L98.0163 74.2887L97.9224 71.6696H99.6128L99.5189 74.2887L101.961 73.3809L102.482 74.9879L99.978 75.7183L101.585 77.7531L100.218 78.7444L98.7676 76.5948L97.3067 78.7444ZM121.937 78.7444L120.57 77.7531L122.188 75.7183L119.683 74.9879L120.205 73.3809L122.647 74.2887L122.553 71.6696H124.243L124.149 74.2887L126.591 73.3809L127.113 74.9879L124.608 75.7183L126.215 77.7531L124.848 78.7444L123.398 76.5948L121.937 78.7444ZM131.947 78.7444L130.58 77.7531L132.197 75.7183L129.693 74.9879L130.215 73.3809L132.656 74.2887L132.562 71.6696H134.253L134.159 74.2887L136.601 73.3809L137.122 74.9879L134.618 75.7183L136.225 77.7531L134.858 78.7444L133.408 76.5948L131.947 78.7444ZM141.956 78.7444L140.589 77.7531L142.207 75.7183L139.702 74.9879L140.224 73.3809L142.666 74.2887L142.572 71.6696H144.262L144.168 74.2887L146.61 73.3809L147.132 74.9879L144.627 75.7183L146.234 77.7531L144.867 78.7444L143.417 76.5948L141.956 78.7444ZM151.966 78.7444L150.599 77.7531L152.216 75.7183L149.712 74.9879L150.234 73.3809L152.675 74.2887L152.581 71.6696H154.272L154.178 74.2887L156.62 73.3809L157.141 74.9879L154.637 75.7183L156.244 77.7531L154.877 78.7444L153.427 76.5948L151.966 78.7444ZM179.299 86.9879C178.554 86.9879 177.862 86.8522 177.222 86.5809C176.582 86.3026 176.029 85.9131 175.563 85.4122C175.104 84.9044 174.767 84.3026 174.551 83.607L176.335 83.0957C176.565 83.7913 176.947 84.32 177.483 84.6818C178.019 85.0435 178.62 85.2209 179.288 85.2139C179.9 85.2 180.429 85.0609 180.874 84.7965C181.327 84.5252 181.674 84.1565 181.918 83.6905C182.168 83.2244 182.294 82.6852 182.294 82.0731C182.294 81.1409 182.015 80.3861 181.459 79.8087C180.902 79.2244 180.172 78.9322 179.267 78.9322C179.017 78.9322 178.753 78.967 178.474 79.0365C178.203 79.1061 177.949 79.2035 177.713 79.3287L176.815 77.8574L182.387 72.8174L182.627 73.4435H175.146V71.6696H184.005V73.4539L179.257 78.0035L179.236 77.3461C180.231 77.2765 181.1 77.44 181.845 77.8365C182.589 78.2331 183.167 78.8 183.577 79.5374C183.994 80.2748 184.203 81.12 184.203 82.0731C184.203 83.0331 183.987 83.8818 183.556 84.6192C183.125 85.3565 182.54 85.9374 181.803 86.3618C181.066 86.7792 180.231 86.9879 179.299 86.9879ZM191.734 86.9879C190.989 86.9879 190.297 86.8522 189.657 86.5809C189.017 86.3026 188.464 85.9131 187.998 85.4122C187.539 84.9044 187.201 84.3026 186.986 83.607L188.77 83.0957C189 83.7913 189.382 84.32 189.918 84.6818C190.454 85.0435 191.055 85.2209 191.723 85.2139C192.335 85.2 192.864 85.0609 193.309 84.7965C193.761 84.5252 194.109 84.1565 194.353 83.6905C194.603 83.2244 194.728 82.6852 194.728 82.0731C194.728 81.1409 194.45 80.3861 193.894 79.8087C193.337 79.2244 192.607 78.9322 191.702 78.9322C191.452 78.9322 191.187 78.967 190.909 79.0365C190.638 79.1061 190.384 79.2035 190.147 79.3287L189.25 77.8574L194.822 72.8174L195.062 73.4435H187.58V71.6696H196.44V73.4539L191.692 78.0035L191.671 77.3461C192.666 77.2765 193.535 77.44 194.28 77.8365C195.024 78.2331 195.601 78.8 196.012 79.5374C196.429 80.2748 196.638 81.12 196.638 82.0731C196.638 83.0331 196.422 83.8818 195.991 84.6192C195.56 85.3565 194.975 85.9374 194.238 86.3618C193.5 86.7792 192.666 86.9879 191.734 86.9879ZM206.537 86.6957V83.9305H199.629V82.167L204.586 71.6696H206.694L201.737 82.167H206.537V77.9409H208.415V82.167H209.98V83.9305H208.415V86.6957H206.537ZM219.726 86.6957V83.9305H212.818V82.167L217.775 71.6696H219.882L214.926 82.167H219.726V77.9409H221.604V82.167H223.169V83.9305H221.604V86.6957H219.726Z" fill="white"/>
<g clip-path="url(#clip1_126_1524)">
<path d="M10.3236 132.826V126.816H11.0749L14.2095 131.511V126.816H14.9608V132.826H14.2095L11.0749 128.126V132.826H10.3236ZM18.105 132.951C17.7683 132.951 17.4859 132.89 17.2577 132.768C17.0323 132.643 16.8612 132.478 16.7443 132.275C16.6302 132.072 16.5732 131.849 16.5732 131.607C16.5732 131.371 16.6177 131.166 16.7067 130.994C16.7986 130.819 16.9266 130.674 17.0907 130.56C17.2549 130.443 17.4511 130.351 17.6793 130.284C17.8935 130.226 18.1328 130.176 18.3972 130.134C18.6643 130.089 18.9342 130.049 19.2069 130.013C19.4796 129.977 19.7342 129.942 19.9707 129.909L19.7036 130.063C19.712 129.662 19.6313 129.366 19.4615 129.174C19.2946 128.982 19.0052 128.886 18.5933 128.886C18.3206 128.886 18.0813 128.949 17.8754 129.074C17.6723 129.196 17.529 129.397 17.4455 129.675L16.7401 129.462C16.8486 129.067 17.0587 128.757 17.3704 128.531C17.682 128.306 18.0925 128.193 18.6017 128.193C19.0107 128.193 19.3613 128.267 19.6535 128.414C19.9485 128.559 20.16 128.779 20.288 129.074C20.352 129.213 20.3923 129.365 20.409 129.529C20.4257 129.69 20.434 129.86 20.434 130.038V132.826H19.7746V131.745L19.929 131.845C19.7593 132.21 19.5213 132.485 19.2153 132.672C18.912 132.858 18.5419 132.951 18.105 132.951ZM18.2177 132.329C18.4848 132.329 18.7158 132.282 18.9106 132.188C19.1081 132.09 19.2667 131.964 19.3864 131.808C19.506 131.649 19.584 131.477 19.6201 131.29C19.6619 131.151 19.6841 130.997 19.6869 130.827C19.6925 130.654 19.6953 130.522 19.6953 130.43L19.954 130.543C19.712 130.576 19.474 130.608 19.2403 130.639C19.0066 130.67 18.7853 130.703 18.5766 130.739C18.368 130.773 18.1801 130.813 18.0132 130.86C17.8907 130.899 17.7753 130.949 17.6667 131.011C17.561 131.072 17.4747 131.151 17.408 131.248C17.344 131.343 17.312 131.461 17.312 131.603C17.312 131.726 17.3426 131.843 17.4038 131.954C17.4678 132.065 17.5652 132.156 17.696 132.225C17.8295 132.295 18.0034 132.329 18.2177 132.329ZM27.6034 132.826L27.6076 129.942C27.6076 129.605 27.5172 129.342 27.3363 129.153C27.1582 128.961 26.9259 128.865 26.6393 128.865C26.4723 128.865 26.3137 128.904 26.1634 128.982C26.0132 129.057 25.8907 129.177 25.7961 129.341C25.7015 129.502 25.6542 129.71 25.6542 129.963L25.2619 129.804C25.2563 129.484 25.3217 129.205 25.458 128.965C25.5972 128.723 25.7864 128.535 26.0257 128.402C26.265 128.268 26.5349 128.201 26.8354 128.201C27.3057 128.201 27.6758 128.345 27.9457 128.631C28.2156 128.915 28.3506 129.298 28.3506 129.779L28.3464 132.826H27.6034ZM22.2107 132.826V128.318H22.8744V129.525H22.9579V132.826H22.2107ZM24.9113 132.826L24.9154 129.971C24.9154 129.626 24.8264 129.356 24.6483 129.161C24.4702 128.964 24.2337 128.865 23.9387 128.865C23.6466 128.865 23.41 128.965 23.2292 129.166C23.0483 129.366 22.9579 129.632 22.9579 129.963L22.5655 129.729C22.5655 129.437 22.6351 129.175 22.7742 128.944C22.9133 128.713 23.1026 128.533 23.3419 128.402C23.5812 128.268 23.8525 128.201 24.1558 128.201C24.4591 128.201 24.7234 128.265 24.9488 128.393C25.1742 128.521 25.3481 128.705 25.4706 128.944C25.593 129.181 25.6542 129.463 25.6542 129.792L25.65 132.826H24.9113ZM32.046 132.951C31.6036 132.951 31.2168 132.854 30.8857 132.659C30.5573 132.462 30.3013 132.188 30.1177 131.837C29.934 131.484 29.8422 131.072 29.8422 130.601C29.8422 130.109 29.9326 129.683 30.1135 129.324C30.2944 128.963 30.5462 128.684 30.869 128.489C31.1945 128.292 31.5758 128.193 32.0126 128.193C32.4662 128.193 32.8516 128.297 33.1688 128.506C33.4888 128.715 33.7281 129.013 33.8867 129.399C34.0481 129.786 34.1177 130.247 34.0954 130.781H33.3441V130.514C33.3358 129.96 33.2231 129.547 33.006 129.274C32.789 128.999 32.4662 128.861 32.0377 128.861C31.5785 128.861 31.2293 129.008 30.99 129.303C30.7507 129.598 30.6311 130.021 30.6311 130.572C30.6311 131.104 30.7507 131.516 30.99 131.808C31.2293 132.1 31.5702 132.246 32.0126 132.246C32.3104 132.246 32.5691 132.178 32.789 132.041C33.0088 131.905 33.1813 131.709 33.3065 131.453L34.0203 131.699C33.845 132.097 33.5806 132.406 33.2272 132.626C32.8766 132.843 32.4829 132.951 32.046 132.951ZM30.3806 130.781V130.184H33.7114V130.781H30.3806Z" fill="#F8F9FF"/>
<path d="M10.421 149.13V142.118H12.5831C12.6545 142.118 12.7795 142.12 12.958 142.123C13.1366 142.126 13.307 142.139 13.4693 142.162C14.0115 142.233 14.4644 142.431 14.828 142.756C15.1948 143.078 15.4707 143.487 15.6558 143.983C15.8408 144.48 15.9333 145.027 15.9333 145.624C15.9333 146.222 15.8408 146.769 15.6558 147.265C15.4707 147.762 15.1948 148.173 14.828 148.497C14.4644 148.819 14.0115 149.015 13.4693 149.087C13.307 149.106 13.135 149.119 12.9532 149.126C12.7746 149.129 12.6513 149.13 12.5831 149.13H10.421ZM11.3121 148.303H12.5831C12.7064 148.303 12.8444 148.299 12.997 148.293C13.1496 148.283 13.2827 148.268 13.3963 148.249C13.7794 148.178 14.0894 148.017 14.3264 147.767C14.5634 147.517 14.7371 147.205 14.8474 146.832C14.9578 146.459 15.013 146.056 15.013 145.624C15.013 145.183 14.9562 144.775 14.8426 144.402C14.7322 144.029 14.5585 143.719 14.3215 143.472C14.0845 143.225 13.7761 143.068 13.3963 143C13.2827 142.977 13.148 142.962 12.9921 142.956C12.8363 142.949 12.7 142.946 12.5831 142.946H11.3121V148.303ZM17.7457 149.13V143.871H18.52V145.142L18.3934 144.977C18.4551 144.814 18.5346 144.665 18.632 144.529C18.7326 144.392 18.8446 144.28 18.968 144.193C19.1043 144.082 19.2585 143.998 19.4306 143.939C19.6027 143.881 19.778 143.847 19.9565 143.837C20.1351 143.824 20.3022 143.836 20.4581 143.871V144.684C20.2763 144.636 20.0766 144.623 19.8591 144.646C19.6416 144.668 19.4403 144.748 19.2553 144.884C19.0865 145.004 18.955 145.15 18.8609 145.322C18.77 145.494 18.7067 145.681 18.6709 145.882C18.6352 146.08 18.6174 146.283 18.6174 146.491V149.13H17.7457ZM24.0711 149.267C23.7334 149.267 23.4429 149.213 23.1994 149.106C22.9592 148.999 22.7595 148.856 22.6004 148.678C22.4414 148.499 22.3164 148.301 22.2255 148.083C22.1346 147.866 22.0697 147.644 22.0307 147.416C21.995 147.189 21.9771 146.976 21.9771 146.778V143.871H22.8537V146.506C22.8537 146.752 22.8764 146.991 22.9218 147.222C22.9673 147.452 23.0436 147.66 23.1507 147.845C23.2611 148.03 23.4072 148.176 23.589 148.283C23.774 148.39 24.0045 148.444 24.2804 148.444C24.498 148.444 24.696 148.406 24.8745 148.332C25.0531 148.257 25.2057 148.147 25.3323 148.001C25.4589 147.851 25.5563 147.663 25.6244 147.436C25.6926 147.209 25.7267 146.944 25.7267 146.642L26.2964 146.817C26.2964 147.324 26.2039 147.76 26.0189 148.127C25.8371 148.494 25.579 148.777 25.2446 148.975C24.9135 149.169 24.5223 149.267 24.0711 149.267ZM25.8241 149.13V147.723H25.7267V143.871H26.5984V149.13H25.8241ZM28.7548 142.941V142.045H29.6216V142.941H28.7548ZM28.7548 149.13V143.871H29.6216V149.13H28.7548ZM33.843 149.276C33.3528 149.276 32.9324 149.155 32.5818 148.911C32.2312 148.665 31.9601 148.332 31.7686 147.913C31.5803 147.494 31.4862 147.022 31.4862 146.496C31.4862 145.97 31.5803 145.498 31.7686 145.079C31.9601 144.66 32.2312 144.331 32.5818 144.09C32.9324 143.847 33.3512 143.725 33.8382 143.725C34.3349 143.725 34.752 143.845 35.0896 144.086C35.4273 144.326 35.6821 144.655 35.8542 145.074C36.0295 145.493 36.1171 145.967 36.1171 146.496C36.1171 147.019 36.0295 147.491 35.8542 147.913C35.6821 148.332 35.4273 148.665 35.0896 148.911C34.752 149.155 34.3365 149.276 33.843 149.276ZM33.9502 148.483C34.304 148.483 34.5946 148.398 34.8218 148.23C35.0491 148.057 35.2162 147.822 35.3234 147.523C35.4338 147.222 35.4889 146.879 35.4889 146.496C35.4889 146.106 35.4338 145.764 35.3234 145.468C35.2162 145.17 35.0507 144.938 34.8267 144.772C34.6027 144.603 34.3186 144.519 33.9745 144.519C33.6174 144.519 33.322 144.607 33.0882 144.782C32.8578 144.957 32.6857 145.194 32.5721 145.493C32.4617 145.791 32.4065 146.126 32.4065 146.496C32.4065 146.869 32.4633 147.207 32.5769 147.509C32.6906 147.807 32.861 148.044 33.0882 148.22C33.3187 148.395 33.606 148.483 33.9502 148.483ZM35.4889 149.13V145.259H35.3916V142.118H36.2632V149.13H35.4889ZM42.4635 149.13L40.4329 142.118H41.3386L42.8969 147.665L44.4503 142.123L45.3609 142.118L46.9192 147.665L48.4726 142.118H49.3832L47.3526 149.13H46.4858L44.908 143.633L43.3303 149.13H42.4635ZM52.6076 149.276C52.0914 149.276 51.6401 149.163 51.2538 148.936C50.8708 148.705 50.5721 148.385 50.3578 147.976C50.1436 147.564 50.0364 147.084 50.0364 146.535C50.0364 145.96 50.1419 145.464 50.353 145.045C50.564 144.623 50.8578 144.298 51.2343 144.071C51.6142 143.84 52.0589 143.725 52.5686 143.725C53.0978 143.725 53.5474 143.847 53.9175 144.09C54.2908 144.334 54.57 144.681 54.755 145.132C54.9433 145.584 55.0245 146.121 54.9985 146.744H54.122V146.433C54.1123 145.787 53.9808 145.305 53.7276 144.986C53.4743 144.665 53.0978 144.504 52.5978 144.504C52.0622 144.504 51.6548 144.676 51.3756 145.02C51.0964 145.365 50.9568 145.858 50.9568 146.501C50.9568 147.121 51.0964 147.601 51.3756 147.942C51.6548 148.283 52.0524 148.454 52.5686 148.454C52.916 148.454 53.2179 148.374 53.4743 148.215C53.7308 148.056 53.9321 147.827 54.0782 147.528L54.9109 147.816C54.7063 148.28 54.3979 148.64 53.9857 148.897C53.5766 149.15 53.1172 149.276 52.6076 149.276ZM50.6646 146.744V146.048H54.5505V146.744H50.6646ZM60.3804 149.13V146.496C60.3804 146.246 60.3576 146.006 60.3122 145.775C60.27 145.545 60.1937 145.339 60.0833 145.157C59.9762 144.972 59.8301 144.826 59.6451 144.719C59.4633 144.611 59.2328 144.558 58.9536 144.558C58.7361 144.558 58.538 144.595 58.3595 144.67C58.1842 144.741 58.0332 144.852 57.9066 145.001C57.78 145.15 57.681 145.339 57.6096 145.566C57.5414 145.79 57.5073 146.054 57.5073 146.36L56.9376 146.184C56.9376 145.675 57.0285 145.238 57.2103 144.874C57.3953 144.508 57.6534 144.227 57.9845 144.032C58.3189 143.834 58.7117 143.735 59.163 143.735C59.5038 143.735 59.7944 143.788 60.0346 143.896C60.2749 144.003 60.4745 144.146 60.6336 144.324C60.7927 144.499 60.9176 144.697 61.0085 144.918C61.0994 145.136 61.1627 145.358 61.1985 145.585C61.2374 145.809 61.2569 146.022 61.2569 146.223V149.13H60.3804ZM56.6308 149.13V143.871H57.4099V145.279H57.5073V149.13H56.6308ZM65.2053 149.272C64.5788 149.272 64.0642 149.135 63.6617 148.863C63.2624 148.587 63.0173 148.202 62.9264 147.708L63.8126 147.567C63.8841 147.853 64.048 148.08 64.3045 148.249C64.5609 148.415 64.8791 148.497 65.2589 148.497C65.6193 148.497 65.9017 148.423 66.1062 148.273C66.3107 148.124 66.413 147.921 66.413 147.665C66.413 147.515 66.3789 147.395 66.3107 147.304C66.2426 147.21 66.1013 147.122 65.8871 147.041C65.6761 146.96 65.3563 146.863 64.9278 146.749C64.4635 146.626 64.0983 146.498 63.8321 146.364C63.5659 146.231 63.376 146.077 63.2624 145.902C63.1488 145.727 63.0919 145.514 63.0919 145.264C63.0919 144.956 63.1764 144.686 63.3452 144.456C63.514 144.222 63.7493 144.042 64.0513 143.915C64.3564 143.788 64.7103 143.725 65.1128 143.725C65.5121 143.725 65.8692 143.788 66.1841 143.915C66.499 144.042 66.7522 144.222 66.9438 144.456C67.1386 144.686 67.2538 144.956 67.2895 145.264L66.4033 145.425C66.361 145.142 66.2247 144.92 65.9942 144.758C65.767 144.595 65.4732 144.509 65.1128 144.499C64.7719 144.486 64.4944 144.546 64.2801 144.68C64.0691 144.813 63.9636 144.993 63.9636 145.22C63.9636 145.347 64.0026 145.455 64.0805 145.546C64.1616 145.637 64.3093 145.723 64.5236 145.804C64.7411 145.886 65.056 145.978 65.4683 146.082C65.9325 146.199 66.2977 146.327 66.5639 146.467C66.8334 146.603 67.0249 146.765 67.1386 146.954C67.2522 147.139 67.309 147.368 67.309 147.64C67.309 148.147 67.1223 148.546 66.749 148.838C66.3757 149.127 65.8611 149.272 65.2053 149.272ZM69.176 149.13V141.972H70.0428V149.13H69.176ZM74.4785 149.276C73.9623 149.276 73.5111 149.163 73.1247 148.936C72.7417 148.705 72.443 148.385 72.2287 147.976C72.0145 147.564 71.9074 147.084 71.9074 146.535C71.9074 145.96 72.0129 145.464 72.2239 145.045C72.4349 144.623 72.7287 144.298 73.1053 144.071C73.4851 143.84 73.9298 143.725 74.4395 143.725C74.9687 143.725 75.4183 143.847 75.7884 144.09C76.1617 144.334 76.4409 144.681 76.626 145.132C76.8143 145.584 76.8954 146.121 76.8694 146.744H75.9929V146.433C75.9832 145.787 75.8517 145.305 75.5985 144.986C75.3453 144.665 74.9687 144.504 74.4687 144.504C73.9331 144.504 73.5257 144.676 73.2465 145.02C72.9673 145.365 72.8277 145.858 72.8277 146.501C72.8277 147.121 72.9673 147.601 73.2465 147.942C73.5257 148.283 73.9234 148.454 74.4395 148.454C74.7869 148.454 75.0888 148.374 75.3453 148.215C75.6017 148.056 75.803 147.827 75.9491 147.528L76.7818 147.816C76.5773 148.28 76.2689 148.64 75.8566 148.897C75.4475 149.15 74.9882 149.276 74.4785 149.276ZM72.5355 146.744V146.048H76.4214V146.744H72.5355ZM79.2846 151.468L80.3023 148.702L80.3169 149.52L78.0185 143.871H78.9291L80.7308 148.415H80.4192L82.1089 143.871H82.9903L80.127 151.468H79.2846ZM86.3648 149.276C85.8746 149.276 85.4542 149.155 85.1036 148.911C84.7529 148.665 84.4819 148.332 84.2903 147.913C84.102 147.494 84.0079 147.022 84.0079 146.496C84.0079 145.97 84.102 145.498 84.2903 145.079C84.4819 144.66 84.7529 144.331 85.1036 144.09C85.4542 143.847 85.8729 143.725 86.3599 143.725C86.8566 143.725 87.2738 143.845 87.6114 144.086C87.949 144.326 88.2038 144.655 88.3759 145.074C88.5512 145.493 88.6389 145.967 88.6389 146.496C88.6389 147.019 88.5512 147.491 88.3759 147.913C88.2038 148.332 87.949 148.665 87.6114 148.911C87.2738 149.155 86.8582 149.276 86.3648 149.276ZM86.4719 148.483C86.8258 148.483 87.1163 148.398 87.3436 148.23C87.5708 148.057 87.738 147.822 87.8451 147.523C87.9555 147.222 88.0107 146.879 88.0107 146.496C88.0107 146.106 87.9555 145.764 87.8451 145.468C87.738 145.17 87.5724 144.938 87.3484 144.772C87.1244 144.603 86.8404 144.519 86.4963 144.519C86.1392 144.519 85.8437 144.607 85.61 144.782C85.3795 144.957 85.2074 145.194 85.0938 145.493C84.9834 145.791 84.9283 146.126 84.9283 146.496C84.9283 146.869 84.9851 147.207 85.0987 147.509C85.2123 147.807 85.3827 148.044 85.61 148.22C85.8405 148.395 86.1278 148.483 86.4719 148.483ZM88.0107 149.13V145.259H87.9133V142.118H88.7849V149.13H88.0107ZM92.3399 149.276C91.9471 149.276 91.6176 149.205 91.3514 149.062C91.0884 148.916 90.8887 148.725 90.7524 148.488C90.6193 148.251 90.5527 147.991 90.5527 147.708C90.5527 147.433 90.6047 147.194 90.7086 146.993C90.8157 146.788 90.965 146.619 91.1566 146.486C91.3481 146.35 91.577 146.243 91.8432 146.165C92.0931 146.097 92.3723 146.038 92.6807 145.99C92.9924 145.938 93.3073 145.89 93.6254 145.848C93.9436 145.806 94.2406 145.766 94.5166 145.727L94.2049 145.907C94.2147 145.439 94.1205 145.094 93.9225 144.87C93.7277 144.646 93.3901 144.534 92.9096 144.534C92.5915 144.534 92.3123 144.607 92.072 144.753C91.8351 144.895 91.6679 145.129 91.5705 145.454L90.7475 145.206C90.8741 144.745 91.1192 144.383 91.4828 144.12C91.8464 143.857 92.3253 143.725 92.9194 143.725C93.3966 143.725 93.8056 143.811 94.1465 143.983C94.4906 144.152 94.7373 144.409 94.8867 144.753C94.9613 144.915 95.0084 145.092 95.0279 145.283C95.0474 145.472 95.0571 145.67 95.0571 145.878V149.13H94.2877V147.869L94.4679 147.986C94.2698 148.411 93.9923 148.733 93.6352 148.95C93.2813 149.168 92.8496 149.276 92.3399 149.276ZM92.4714 148.551C92.783 148.551 93.0525 148.496 93.2797 148.385C93.5102 148.272 93.6952 148.124 93.8348 147.942C93.9744 147.757 94.0653 147.556 94.1075 147.338C94.1562 147.176 94.1822 146.996 94.1854 146.798C94.1919 146.597 94.1952 146.442 94.1952 146.335L94.4971 146.467C94.2147 146.506 93.9371 146.543 93.6644 146.579C93.3917 146.614 93.1336 146.653 92.8901 146.696C92.6467 146.735 92.4275 146.782 92.2327 146.837C92.0899 146.882 91.9552 146.941 91.8286 147.012C91.7052 147.084 91.6046 147.176 91.5267 147.29C91.452 147.4 91.4147 147.538 91.4147 147.704C91.4147 147.846 91.4504 147.983 91.5218 148.113C91.5965 148.242 91.7101 148.348 91.8627 148.429C92.0185 148.51 92.2214 148.551 92.4714 148.551ZM97.1162 149.13V141.972H97.983V149.13H97.1162ZM102.419 149.276C101.903 149.276 101.451 149.163 101.065 148.936C100.682 148.705 100.383 148.385 100.169 147.976C99.9547 147.564 99.8476 147.084 99.8476 146.535C99.8476 145.96 99.9531 145.464 100.164 145.045C100.375 144.623 100.669 144.298 101.045 144.071C101.425 143.84 101.87 143.725 102.38 143.725C102.909 143.725 103.359 143.847 103.729 144.09C104.102 144.334 104.381 144.681 104.566 145.132C104.754 145.584 104.836 146.121 104.81 146.744H103.933V146.433C103.923 145.787 103.792 145.305 103.539 144.986C103.285 144.665 102.909 144.504 102.409 144.504C101.873 144.504 101.466 144.676 101.187 145.02C100.908 145.365 100.768 145.858 100.768 146.501C100.768 147.121 100.908 147.601 101.187 147.942C101.466 148.283 101.864 148.454 102.38 148.454C102.727 148.454 103.029 148.374 103.285 148.215C103.542 148.056 103.743 147.827 103.889 147.528L104.722 147.816C104.517 148.28 104.209 148.64 103.797 148.897C103.388 149.15 102.928 149.276 102.419 149.276ZM100.476 146.744V146.048H104.362V146.744H100.476Z" fill="white"/>
<path d="M235.306 148.826V143.638L234.175 144.322V143.492L235.306 142.816H236.062V148.826H235.306ZM238.179 148.822L238.183 148.154L240.85 145.754C241.073 145.554 241.222 145.364 241.297 145.186C241.375 145.006 241.414 144.82 241.414 144.631C241.414 144.4 241.361 144.192 241.255 144.005C241.149 143.819 241.004 143.671 240.821 143.563C240.64 143.454 240.434 143.4 240.203 143.4C239.964 143.4 239.751 143.457 239.564 143.571C239.378 143.682 239.231 143.831 239.122 144.018C239.016 144.204 238.965 144.407 238.968 144.627H238.208C238.208 144.249 238.296 143.915 238.471 143.625C238.646 143.333 238.884 143.105 239.185 142.941C239.488 142.774 239.832 142.69 240.216 142.69C240.588 142.69 240.922 142.777 241.217 142.949C241.512 143.119 241.745 143.351 241.914 143.646C242.087 143.938 242.173 144.27 242.173 144.64C242.173 144.901 242.14 145.128 242.073 145.32C242.009 145.512 241.909 145.69 241.772 145.854C241.636 146.016 241.465 146.188 241.259 146.372L239.043 148.363L238.947 148.112H242.173V148.822H238.179ZM245.387 142.816H246.142L244.539 148.826H243.784L245.387 142.816ZM247.755 148.822L247.759 148.154L250.426 145.754C250.649 145.554 250.798 145.364 250.873 145.186C250.951 145.006 250.99 144.82 250.99 144.631C250.99 144.4 250.937 144.192 250.831 144.005C250.725 143.819 250.581 143.671 250.397 143.563C250.216 143.454 250.01 143.4 249.779 143.4C249.54 143.4 249.327 143.457 249.141 143.571C248.954 143.682 248.807 143.831 248.698 144.018C248.592 144.204 248.541 144.407 248.544 144.627H247.784C247.784 144.249 247.872 143.915 248.047 143.625C248.222 143.333 248.46 143.105 248.761 142.941C249.064 142.774 249.408 142.69 249.792 142.69C250.165 142.69 250.498 142.777 250.793 142.949C251.088 143.119 251.321 143.351 251.49 143.646C251.663 143.938 251.749 144.27 251.749 144.64C251.749 144.901 251.716 145.128 251.649 145.32C251.585 145.512 251.485 145.69 251.349 145.854C251.212 146.016 251.041 146.188 250.835 146.372L248.619 148.363L248.523 148.112H251.749V148.822H247.755ZM255.493 148.951C255.112 148.951 254.765 148.859 254.454 148.676C254.145 148.492 253.898 148.242 253.715 147.924C253.534 147.604 253.444 147.244 253.444 146.843V144.844C253.444 144.424 253.534 144.052 253.715 143.73C253.898 143.404 254.149 143.151 254.466 142.97C254.786 142.786 255.151 142.695 255.56 142.695C255.891 142.695 256.198 142.763 256.482 142.899C256.769 143.033 257.009 143.226 257.204 143.479L256.649 143.972C256.529 143.796 256.374 143.657 256.182 143.554C255.99 143.451 255.782 143.4 255.56 143.4C255.295 143.4 255.06 143.464 254.854 143.592C254.651 143.717 254.491 143.884 254.374 144.093C254.257 144.299 254.199 144.521 254.199 144.761V145.967L254.036 145.783C254.212 145.533 254.434 145.332 254.704 145.182C254.974 145.032 255.266 144.957 255.581 144.957C255.953 144.957 256.287 145.044 256.582 145.22C256.88 145.395 257.114 145.633 257.284 145.934C257.456 146.231 257.542 146.567 257.542 146.939C257.542 147.312 257.449 147.65 257.263 147.954C257.076 148.257 256.827 148.499 256.516 148.68C256.207 148.861 255.866 148.951 255.493 148.951ZM255.493 148.233C255.732 148.233 255.951 148.176 256.148 148.062C256.346 147.945 256.502 147.79 256.616 147.595C256.733 147.397 256.791 147.179 256.791 146.939C256.791 146.7 256.733 146.482 256.616 146.284C256.502 146.087 256.346 145.931 256.148 145.817C255.953 145.7 255.736 145.641 255.497 145.641C255.258 145.641 255.039 145.7 254.842 145.817C254.647 145.931 254.491 146.087 254.374 146.284C254.257 146.482 254.199 146.7 254.199 146.939C254.199 147.176 254.256 147.393 254.37 147.591C254.487 147.785 254.643 147.941 254.838 148.058C255.035 148.175 255.254 148.233 255.493 148.233Z" fill="#F8F9FF"/>
</g>
</g>
<defs>
<clipPath id="clip0_126_1524">
<rect width="268.522" height="160" fill="white"/>
</clipPath>
<clipPath id="clip1_126_1524">
<rect width="249.043" height="26.4348" fill="white" transform="translate(9.73926 123.826)"/>
</clipPath>
</defs>
</svg>
