<svg width="230" height="210" viewBox="0 0 230 210" fill="none" xmlns="http://www.w3.org/2000/svg">
<path d="M115.103 50.5556V192.111M115.103 50.5556H72.6339C66.3763 50.5556 60.3751 48.2612 55.9505 44.177C51.5257 40.0929 49.04 34.5536 49.04 28.7778C49.04 23.002 51.5257 17.4627 55.9505 13.3786C60.3751 9.2944 66.3763 7 72.6339 7C105.665 7 115.103 50.5556 115.103 50.5556ZM115.103 50.5556H157.572C163.83 50.5556 169.83 48.2612 174.255 44.177C178.679 40.0929 181.166 34.5536 181.166 28.7778C181.166 23.002 178.679 17.4627 174.255 13.3786C169.83 9.2944 163.83 7 157.572 7C124.54 7 115.103 50.5556 115.103 50.5556ZM115.103 50.5556H203.987C210.715 50.5556 214.078 50.5556 216.647 51.7423C218.908 52.7864 220.744 54.4521 221.896 56.501C223.206 58.8302 223.206 61.8795 223.206 67.9778V87.5778C223.206 93.6766 223.206 96.7255 221.896 99.0547C220.744 101.104 218.908 102.769 216.647 103.813C214.078 105 210.715 105 203.987 105H26.2183C19.4913 105 16.1277 105 13.5584 103.813C11.2983 102.769 9.46078 101.104 8.30912 99.0547C7 96.7255 7 93.6766 7 87.5778V67.9778C7 61.8795 7 58.8302 8.30912 56.501C9.46078 54.4521 11.2983 52.7864 13.5584 51.7423C16.1277 50.5556 19.4913 50.5556 26.2183 50.5556H115.103ZM31.0228 105H199.183V168.156C199.183 180.352 199.183 186.451 196.564 191.109C194.262 195.207 190.586 198.539 186.066 200.626C180.928 203 174.2 203 160.746 203H69.4594C56.0053 203 49.2783 203 44.1396 200.626C39.6193 198.539 35.9443 195.207 33.6412 191.109C31.0228 186.451 31.0228 180.352 31.0228 168.156V105Z" stroke="white" stroke-width="12.4052" stroke-linecap="round" stroke-linejoin="round"/>
</svg>
