<svg width="170" height="33" viewBox="0 0 170 33" fill="none" xmlns="http://www.w3.org/2000/svg">
<path d="M17 8.68014V30.3906M17 8.68014H10.7143C9.78812 8.68014 8.89991 8.32824 8.24503 7.70185C7.59013 7.07547 7.22222 6.2259 7.22222 5.34007C7.22222 4.45423 7.59013 3.60467 8.24503 2.97829C8.89991 2.35189 9.78812 2 10.7143 2C15.6032 2 17 8.68014 17 8.68014ZM17 8.68014H23.2857C24.2119 8.68014 25.1001 8.32824 25.755 7.70185C26.4098 7.07547 26.7778 6.2259 26.7778 5.34007C26.7778 4.45423 26.4098 3.60467 25.755 2.97829C25.1001 2.35189 24.2119 2 23.2857 2C18.3968 2 17 8.68014 17 8.68014ZM17 8.68014H30.1556C31.1513 8.68014 31.6491 8.68014 32.0293 8.86215C32.3639 9.02228 32.6357 9.27776 32.8062 9.59199C33 9.94923 33 10.4169 33 11.3522V14.3582C33 15.2936 33 15.7612 32.8062 16.1185C32.6357 16.4328 32.3639 16.6881 32.0293 16.8483C31.6491 17.0303 31.1513 17.0303 30.1556 17.0303H3.84444C2.8488 17.0303 2.35097 17.0303 1.97068 16.8483C1.63618 16.6881 1.36421 16.4328 1.19376 16.1185C1 15.7612 1 15.2936 1 14.3582V11.3522C1 10.4169 1 9.94923 1.19376 9.59199C1.36421 9.27776 1.63618 9.02228 1.97068 8.86215C2.35097 8.68014 2.8488 8.68014 3.84444 8.68014H17ZM4.55556 17.0303H29.4444V26.7165C29.4444 28.5871 29.4444 29.5225 29.0569 30.2369C28.7161 30.8654 28.1721 31.3764 27.5031 31.6965C26.7426 32.0606 25.7468 32.0606 23.7556 32.0606H10.2444C8.25314 32.0606 7.25749 32.0606 6.49692 31.6965C5.82789 31.3764 5.28396 30.8654 4.94309 30.2369C4.55556 29.5225 4.55556 28.5871 4.55556 26.7165V17.0303Z" stroke="white" stroke-width="1.83607" stroke-linecap="round" stroke-linejoin="round"/>
<path d="M45.822 16.4254C45.822 17.3636 45.9324 18.2097 46.1531 18.9639C46.3922 19.7181 46.7233 20.3712 47.1464 20.923C47.5879 21.4565 48.1214 21.8703 48.7468 22.1647C49.3722 22.459 50.0896 22.6061 50.899 22.6061C51.69 22.6061 52.3982 22.459 53.0236 22.1647C53.6674 21.8703 54.2009 21.4565 54.624 20.923C55.0654 20.3712 55.3966 19.7181 55.6173 18.9639C55.8564 18.2097 55.976 17.3636 55.976 16.4254C55.976 15.4873 55.8564 14.6411 55.6173 13.8869C55.3966 13.1144 55.0654 12.4613 54.624 11.9279C54.2009 11.376 53.6674 10.953 53.0236 10.6586C52.3982 10.3643 51.69 10.2172 50.899 10.2172C50.0896 10.2172 49.3722 10.3735 48.7468 10.6862C48.1214 10.9805 47.5879 11.4036 47.1464 11.9555C46.7233 12.4889 46.3922 13.1419 46.1531 13.9145C45.9324 14.6687 45.822 15.5057 45.822 16.4254ZM60.4184 16.4254C60.4184 17.7683 60.2528 18.9823 59.9217 20.0676C59.5906 21.1345 59.1215 22.0727 58.5145 22.8821C57.9259 23.6914 57.2176 24.3629 56.3899 24.8963C55.5621 25.4298 54.6516 25.8161 53.6582 26.0552C53.7502 26.4231 53.9525 26.7174 54.2653 26.9381C54.578 27.1773 54.9735 27.3704 55.4517 27.5176C55.93 27.6647 56.4819 27.7751 57.1073 27.8487C57.7511 27.9223 58.4409 27.9867 59.1767 28.0418L58.2938 31.1874C56.8589 31.1322 55.6265 30.985 54.5964 30.7459C53.5847 30.5252 52.7201 30.2124 52.0027 29.8077C51.3037 29.4031 50.7426 28.9064 50.3196 28.3178C49.9149 27.7291 49.6022 27.0485 49.3814 26.2759C48.2409 26.1288 47.1832 25.8161 46.2083 25.3378C45.2334 24.8411 44.3872 24.1789 43.6698 23.3511C42.9524 22.5234 42.3913 21.53 41.9867 20.3712C41.582 19.2123 41.3796 17.897 41.3796 16.4254C41.3796 14.7883 41.6371 13.3535 42.1522 12.121C42.6673 10.8702 43.3571 9.82166 44.2216 8.9755C45.1046 8.12933 46.1163 7.49471 47.2568 7.07162C48.4157 6.64854 49.6297 6.437 50.899 6.437C52.205 6.437 53.4375 6.64854 54.5964 7.07162C55.7553 7.49471 56.767 8.12933 57.6315 8.9755C58.4961 9.82166 59.1767 10.8702 59.6734 12.121C60.17 13.3535 60.4184 14.7883 60.4184 16.4254ZM76.1195 25.5033C75.4205 25.7057 74.5192 25.8896 73.4155 26.0552C72.3118 26.2391 71.1529 26.3311 69.9388 26.3311C68.7064 26.3311 67.6762 26.1656 66.8485 25.8344C66.0391 25.5033 65.3953 25.0435 64.917 24.4548C64.4387 23.8478 64.0984 23.1304 63.8961 22.3026C63.6937 21.4748 63.5926 20.5643 63.5926 19.571V11.4864H67.7038V19.0743C67.7038 20.3987 67.8786 21.3553 68.2281 21.9439C68.5776 22.5326 69.2306 22.8269 70.1871 22.8269C70.4815 22.8269 70.7942 22.8177 71.1253 22.7993C71.4564 22.7625 71.7507 22.7257 72.0082 22.6889V11.4864H76.1195V25.5033ZM84.09 26H79.9788V11.4864H84.09V26ZM84.4763 7.29236C84.4763 8.04655 84.228 8.64439 83.7313 9.08587C83.2531 9.50895 82.6828 9.72049 82.0206 9.72049C81.3584 9.72049 80.779 9.50895 80.2823 9.08587C79.804 8.64439 79.5649 8.04655 79.5649 7.29236C79.5649 6.53817 79.804 5.94953 80.2823 5.52645C80.779 5.08497 81.3584 4.86423 82.0206 4.86423C82.6828 4.86423 83.2531 5.08497 83.7313 5.52645C84.228 5.94953 84.4763 6.53817 84.4763 7.29236ZM98.8537 14.2456C98.5226 14.6135 98.0719 15.1102 97.5017 15.7356C96.9498 16.3611 96.352 17.0509 95.7082 17.8051C95.0643 18.5593 94.4113 19.3502 93.7491 20.178C93.1053 21.0058 92.5166 21.806 91.9832 22.5785H98.9917V26H86.989V23.5719C87.3753 22.9097 87.8351 22.2014 88.3686 21.4473C88.9204 20.6747 89.4907 19.9021 90.0793 19.1295C90.6863 18.3569 91.2842 17.6119 91.8728 16.8945C92.4615 16.1587 93.0041 15.4965 93.5008 14.9079H87.3201V11.4864H98.8537V14.2456ZM117.375 26.3863C114.266 26.3863 111.893 25.5217 110.256 23.7926C108.637 22.0635 107.828 19.6078 107.828 16.4254C107.828 14.8435 108.076 13.4363 108.573 12.2038C109.069 10.953 109.75 9.90444 110.615 9.05828C111.479 8.19371 112.509 7.54069 113.705 7.09922C114.901 6.65774 116.197 6.437 117.595 6.437C118.405 6.437 119.141 6.50138 119.803 6.63015C120.465 6.74051 121.044 6.87848 121.541 7.04403C122.038 7.19119 122.452 7.34755 122.783 7.5131C123.114 7.67866 123.353 7.80742 123.5 7.8994L122.259 11.376C121.67 11.0633 120.98 10.7966 120.189 10.5759C119.416 10.3551 118.534 10.2447 117.54 10.2447C116.878 10.2447 116.225 10.3551 115.581 10.5759C114.956 10.7966 114.395 11.1553 113.898 11.652C113.42 12.1302 113.033 12.7557 112.739 13.5282C112.445 14.3008 112.298 15.239 112.298 16.3427C112.298 17.2256 112.39 18.0534 112.574 18.826C112.776 19.5802 113.089 20.2332 113.512 20.785C113.953 21.3369 114.523 21.7784 115.222 22.1095C115.921 22.4222 116.768 22.5785 117.761 22.5785C118.386 22.5785 118.947 22.5418 119.444 22.4682C119.941 22.3946 120.382 22.3118 120.769 22.2198C121.155 22.1095 121.495 21.9899 121.789 21.8611C122.084 21.7324 122.35 21.6128 122.59 21.5024L123.776 24.9515C123.169 25.3194 122.314 25.6505 121.21 25.9448C120.106 26.2391 118.828 26.3863 117.375 26.3863ZM132.087 23.1304C132.492 23.1304 132.878 23.1212 133.246 23.1028C133.614 23.0844 133.908 23.0568 134.129 23.02V19.9021C133.963 19.8653 133.715 19.8285 133.384 19.7917C133.053 19.7549 132.749 19.7365 132.473 19.7365C132.087 19.7365 131.719 19.7641 131.37 19.8193C131.038 19.8561 130.744 19.9389 130.487 20.0676C130.229 20.1964 130.027 20.3712 129.88 20.5919C129.732 20.8126 129.659 21.0886 129.659 21.4197C129.659 22.0635 129.87 22.5142 130.293 22.7717C130.735 23.0108 131.333 23.1304 132.087 23.1304ZM131.756 11.1001C132.97 11.1001 133.982 11.2381 134.791 11.514C135.6 11.7899 136.244 12.1854 136.723 12.7005C137.219 13.2155 137.569 13.841 137.771 14.5768C137.973 15.3125 138.075 16.1311 138.075 17.0325V25.5861C137.486 25.7149 136.667 25.862 135.619 26.0276C134.57 26.2115 133.301 26.3035 131.811 26.3035C130.873 26.3035 130.018 26.2207 129.245 26.0552C128.491 25.8896 127.838 25.6229 127.286 25.255C126.734 24.8687 126.311 24.372 126.017 23.765C125.722 23.158 125.575 22.413 125.575 21.53C125.575 20.6839 125.741 19.9665 126.072 19.3778C126.421 18.7892 126.881 18.3201 127.451 17.9706C128.022 17.6211 128.675 17.3728 129.411 17.2256C130.146 17.0601 130.91 16.9773 131.701 16.9773C132.234 16.9773 132.703 17.0049 133.108 17.0601C133.531 17.0969 133.871 17.152 134.129 17.2256V16.8393C134.129 16.1403 133.917 15.5793 133.494 15.1562C133.071 14.7331 132.335 14.5216 131.287 14.5216C130.588 14.5216 129.898 14.5768 129.217 14.6871C128.537 14.7791 127.948 14.9171 127.451 15.101L126.927 11.7899C127.166 11.7163 127.461 11.6428 127.81 11.5692C128.178 11.4772 128.574 11.4036 128.997 11.3484C129.42 11.2749 129.861 11.2197 130.321 11.1829C130.799 11.1277 131.278 11.1001 131.756 11.1001ZM145.959 23.0476C146.713 23.0476 147.246 22.974 147.559 22.8269C147.872 22.6797 148.028 22.3946 148.028 21.9715C148.028 21.6404 147.826 21.3553 147.421 21.1161C147.016 20.8586 146.4 20.5735 145.572 20.2608C144.929 20.0216 144.34 19.7733 143.806 19.5158C143.291 19.2583 142.85 18.9547 142.482 18.6052C142.114 18.2373 141.829 17.8051 141.627 17.3084C141.424 16.8117 141.323 16.2139 141.323 15.5149C141.323 14.1537 141.829 13.0776 142.841 12.2866C143.852 11.4956 145.241 11.1001 147.007 11.1001C147.89 11.1001 148.736 11.1829 149.546 11.3484C150.355 11.4956 150.999 11.6612 151.477 11.8451L150.76 15.0458C150.281 14.8803 149.757 14.7331 149.187 14.6043C148.635 14.4756 148.01 14.4112 147.311 14.4112C146.023 14.4112 145.379 14.7699 145.379 15.4873C145.379 15.6529 145.407 15.8 145.462 15.9288C145.517 16.0575 145.628 16.1863 145.793 16.3151C145.959 16.4254 146.179 16.5542 146.455 16.7014C146.75 16.8301 147.118 16.9773 147.559 17.1428C148.46 17.474 149.205 17.8051 149.794 18.1362C150.383 18.4489 150.842 18.7984 151.174 19.1847C151.523 19.5526 151.762 19.9665 151.891 20.4263C152.038 20.8862 152.112 21.4197 152.112 22.0267C152.112 23.4615 151.569 24.5468 150.484 25.2826C149.417 26.0184 147.899 26.3863 145.931 26.3863C144.643 26.3863 143.567 26.2759 142.703 26.0552C141.857 25.8344 141.268 25.6505 140.937 25.5033L141.627 22.1647C142.326 22.4406 143.043 22.6613 143.779 22.8269C144.515 22.974 145.241 23.0476 145.959 23.0476ZM155.184 26V5.25053L159.295 4.58831V11.5416C159.571 11.4496 159.921 11.3668 160.344 11.2933C160.785 11.2013 161.209 11.1553 161.613 11.1553C162.79 11.1553 163.765 11.3209 164.538 11.652C165.329 11.9647 165.954 12.4153 166.414 13.004C166.893 13.5926 167.224 14.2916 167.408 15.101C167.61 15.9104 167.711 16.8117 167.711 17.8051V26H163.6V18.3017C163.6 16.9773 163.425 16.0391 163.076 15.4873C162.745 14.9355 162.119 14.6595 161.199 14.6595C160.831 14.6595 160.482 14.6963 160.151 14.7699C159.838 14.8251 159.553 14.8895 159.295 14.963V26H155.184Z" fill="white"/>
</svg>
