<svg width="62" height="34" viewBox="0 0 62 34" fill="none" xmlns="http://www.w3.org/2000/svg">
<path d="M8.87142 24.0108V21.4018H2.32831V19.207L8.62295 9.84786H11.5632V18.8757H13.3439V21.4018H11.5632V24.0108H8.87142ZM8.87142 13.8855H8.70577L5.33068 18.8757H8.87142V13.8855ZM17.0547 24.135C16.5577 24.135 16.1298 23.9625 15.7709 23.6174C15.4258 23.2585 15.2533 22.8306 15.2533 22.3336C15.2533 21.8367 15.4258 21.4156 15.7709 21.0705C16.1298 20.7254 16.5577 20.5529 17.0547 20.5529C17.5516 20.5529 17.9726 20.7254 18.3177 21.0705C18.6629 21.4156 18.8354 21.8367 18.8354 22.3336C18.8354 22.8306 18.6629 23.2585 18.3177 23.6174C17.9726 23.9625 17.5516 24.135 17.0547 24.135ZM21.3316 23.079L27.2328 12.5396L27.1707 12.4154H20.6483L20.6897 9.84786H30.2973V12.5396L23.6093 24.3421L21.3316 23.079Z" fill="black" fill-opacity="0.8"/>
<path d="M45.1522 7.22931L47.695 13.343L54.2952 13.8721L49.2666 18.1797L50.8029 24.6203L45.1522 21.1689L39.5015 24.6203L41.0379 18.1797L36.0092 13.8721L42.6094 13.343L45.1522 7.22931Z" fill="black" fill-opacity="0.8"/>
</svg>
