<svg width="61" height="16" viewBox="0 0 61 16" fill="none" xmlns="http://www.w3.org/2000/svg">
<path d="M3.72338 15.0109V4.03665L1.21795 5.09266L0.224057 2.79429L4.38598 0.84792H6.43587V15.0109H3.72338ZM15.0253 15.3422C14.1143 15.3422 13.2929 15.1558 12.5613 14.7831C11.8297 14.3966 11.2016 13.872 10.6771 13.2094C10.1663 12.5468 9.77289 11.7669 9.49681 10.8697C9.22073 9.95859 9.08269 8.9785 9.08269 7.92939C9.08269 6.88029 9.22073 5.9071 9.49681 5.00984C9.77289 4.09877 10.1663 3.31194 10.6771 2.64935C11.2016 1.98675 11.8297 1.4691 12.5613 1.09639C13.2929 0.709879 14.1143 0.516622 15.0253 0.516622C15.9364 0.516622 16.7577 0.709879 17.4894 1.09639C18.221 1.4691 18.8421 1.98675 19.3529 2.64935C19.8775 3.31194 20.2778 4.09877 20.5538 5.00984C20.8299 5.9071 20.968 6.88029 20.968 7.92939C20.968 8.9785 20.8299 9.95859 20.5538 10.8697C20.2778 11.7669 19.8775 12.5468 19.3529 13.2094C18.8421 13.872 18.221 14.3966 17.4894 14.7831C16.7577 15.1558 15.9364 15.3422 15.0253 15.3422ZM15.0253 12.7746C15.5223 12.7746 15.9709 12.6573 16.3712 12.4226C16.7715 12.1741 17.1097 11.8359 17.3858 11.408C17.6757 10.9663 17.8897 10.4486 18.0277 9.85506C18.1796 9.26148 18.2555 8.61959 18.2555 7.92939C18.2555 7.22539 18.1796 6.5835 18.0277 6.00373C17.8897 5.41015 17.6757 4.89941 17.3858 4.47148C17.1097 4.02975 16.7715 3.69155 16.3712 3.45688C15.9709 3.20841 15.5223 3.08417 15.0253 3.08417C14.5146 3.08417 14.059 3.20841 13.6587 3.45688C13.2584 3.69155 12.9202 4.02975 12.6441 4.47148C12.3681 4.89941 12.1541 5.41015 12.0022 6.00373C11.8642 6.5835 11.7952 7.22539 11.7952 7.92939C11.7952 8.61959 11.8642 9.26148 12.0022 9.85506C12.1541 10.4486 12.3681 10.9663 12.6441 11.408C12.9202 11.8359 13.2584 12.1741 13.6587 12.4226C14.059 12.6573 14.5146 12.7746 15.0253 12.7746ZM28.735 15.3422C27.8239 15.3422 27.0026 15.1558 26.271 14.7831C25.5394 14.3966 24.9113 13.872 24.3867 13.2094C23.876 12.5468 23.4826 11.7669 23.2065 10.8697C22.9304 9.95859 22.7924 8.9785 22.7924 7.92939C22.7924 6.88029 22.9304 5.9071 23.2065 5.00984C23.4826 4.09877 23.876 3.31194 24.3867 2.64935C24.9113 1.98675 25.5394 1.4691 26.271 1.09639C27.0026 0.709879 27.8239 0.516622 28.735 0.516622C29.6461 0.516622 30.4674 0.709879 31.199 1.09639C31.9306 1.4691 32.5518 1.98675 33.0626 2.64935C33.5871 3.31194 33.9874 4.09877 34.2635 5.00984C34.5396 5.9071 34.6776 6.88029 34.6776 7.92939C34.6776 8.9785 34.5396 9.95859 34.2635 10.8697C33.9874 11.7669 33.5871 12.5468 33.0626 13.2094C32.5518 13.872 31.9306 14.3966 31.199 14.7831C30.4674 15.1558 29.6461 15.3422 28.735 15.3422ZM28.735 12.7746C29.232 12.7746 29.6806 12.6573 30.0809 12.4226C30.4812 12.1741 30.8194 11.8359 31.0955 11.408C31.3854 10.9663 31.5993 10.4486 31.7374 9.85506C31.8892 9.26148 31.9652 8.61959 31.9652 7.92939C31.9652 7.22539 31.8892 6.5835 31.7374 6.00373C31.5993 5.41015 31.3854 4.89941 31.0955 4.47148C30.8194 4.02975 30.4812 3.69155 30.0809 3.45688C29.6806 3.20841 29.232 3.08417 28.735 3.08417C28.2243 3.08417 27.7687 3.20841 27.3684 3.45688C26.9681 3.69155 26.6299 4.02975 26.3538 4.47148C26.0777 4.89941 25.8638 5.41015 25.7119 6.00373C25.5739 6.5835 25.5049 7.22539 25.5049 7.92939C25.5049 8.61959 25.5739 9.26148 25.7119 9.85506C25.8638 10.4486 26.0777 10.9663 26.3538 11.408C26.6299 11.8359 26.9681 12.1741 27.3684 12.4226C27.7687 12.6573 28.2243 12.7746 28.735 12.7746ZM37.0818 0.185326H39.8771V6.54209H40.0428L45.4678 0.185326H48.8429V0.350975L43.48 6.47997L49.4019 14.8452V15.0109H45.9854L41.575 8.69552L39.8771 10.6626V15.0109H37.0818V0.185326ZM56.5237 8.19857H60.0644V10.6005H56.5237V14.1205H54.1218V10.6005H50.6017V8.19857H54.1218V4.67854H56.5237V8.19857Z" fill="black" fill-opacity="0.8"/>
</svg>
