<svg width="102" height="59" viewBox="0 0 102 59" fill="none" xmlns="http://www.w3.org/2000/svg">
<g clip-path="url(#clip0_38_170)">
<path d="M22.9246 32.7061H21.7562L21.342 32.3067C22.7915 30.6207 23.6641 28.4317 23.6641 26.0505C23.6641 20.7409 19.3602 16.437 14.0505 16.437C8.74091 16.437 4.43701 20.7409 4.43701 26.0505C4.43701 31.3602 8.74091 35.6641 14.0505 35.6641C16.4317 35.6641 18.6207 34.7915 20.3067 33.342L20.7061 33.7562V34.9246L28.1011 42.3048L30.3048 40.1011L22.9246 32.7061V32.7061ZM14.0505 32.7061C10.3678 32.7061 7.39502 29.7333 7.39502 26.0505C7.39502 22.3678 10.3678 19.395 14.0505 19.395C17.7333 19.395 20.7061 22.3678 20.7061 26.0505C20.7061 29.7333 17.7333 32.7061 14.0505 32.7061Z" fill="#323232" fill-opacity="0.6"/>
</g>
<circle cx="73.2277" cy="29.2277" r="27.7723" fill="#DEECF1" stroke="white" stroke-width="1.08911"/>
<path d="M74.9345 21.9307H77.0191V31.7582C77.0191 32.6471 76.8432 33.4074 76.4912 34.0391C76.1438 34.6708 75.6542 35.1536 75.0225 35.4875C74.3908 35.8169 73.6508 35.9816 72.8025 35.9816C72.0219 35.9816 71.3203 35.8394 70.6976 35.5552C70.0794 35.2709 69.5899 34.858 69.2289 34.3166C68.8724 33.7706 68.6942 33.1073 68.6942 32.3267H70.7721C70.7721 32.7102 70.86 33.0419 71.036 33.3216C71.2165 33.6014 71.4624 33.8202 71.7738 33.9782C72.0896 34.1316 72.4506 34.2083 72.8567 34.2083C73.2989 34.2083 73.6734 34.1158 73.9802 33.9308C74.2915 33.7413 74.5284 33.4638 74.6909 33.0983C74.8533 32.7328 74.9345 32.2861 74.9345 31.7582V21.9307Z" fill="black"/>
<circle cx="89.5643" cy="48.8317" r="8.71287" fill="#2571F0" stroke="white" stroke-width="1.08911"/>
<path d="M85.0718 51.4523V53.3242H86.9437L92.4646 47.8034L90.5927 45.9314L85.0718 51.4523ZM93.9122 46.3557C94.1068 46.1611 94.1068 45.8466 93.9122 45.6519L92.7441 44.4838C92.5494 44.2892 92.2349 44.2892 92.0403 44.4838L91.1268 45.3973L92.9987 47.2692L93.9122 46.3557Z" fill="white"/>
<defs>
<clipPath id="clip0_38_170">
<rect width="35.4961" height="35.4961" fill="white" transform="translate(0 12)"/>
</clipPath>
</defs>
</svg>
