<svg width="255" height="49" viewBox="0 0 255 49" fill="none" xmlns="http://www.w3.org/2000/svg">
<g clip-path="url(#clip0_5_35)">
<path d="M34.3535 15.7787C29.0098 12.7898 20.4329 7.99046 7.12955 0.541594C6.23264 -0.0507466 5.20069 -0.128372 4.30908 0.173414L27.1339 22.9983L34.3535 15.7787Z" fill="#32BBFF"/>
<path d="M4.30908 0.173401C4.14197 0.230003 3.97936 0.298284 3.82384 0.380761C2.83924 0.913355 2.11572 1.93821 2.11572 3.23438V42.7621C2.11572 44.0583 2.83915 45.0831 3.82384 45.6157C3.97909 45.698 4.14161 45.7666 4.30854 45.8236L27.1339 22.9983L4.30908 0.173401Z" fill="#32BBFF"/>
<path d="M27.134 22.9983L4.30859 45.8236C5.20047 46.1276 6.23242 46.0559 7.1296 45.455C20.031 38.2306 28.5112 33.4881 33.9168 30.4738C34.0672 30.3893 34.2147 30.3066 34.3604 30.2248L27.134 22.9983Z" fill="#32BBFF"/>
<path d="M2 19V38.7639C2 40.06 2.72342 41.0849 3.70811 41.6174C3.86336 41.6998 4.02589 41.7683 4.19282 41.8253L27.0182 19H2Z" fill="#2C9FD9"/>
<path d="M7.12957 0.541571C6.06447 -0.161727 4.80845 -0.141692 3.82385 0.38084L26.7875 23.3446L34.3535 15.7787C29.0098 12.7898 20.4329 7.99044 7.12957 0.541571Z" fill="#29CC5E"/>
<path d="M26.7877 22.652L3.82385 45.6156C4.80854 46.1381 6.06447 46.1683 7.12957 45.4549C20.031 38.2306 28.5112 33.4881 33.9167 30.4738C34.0672 30.3892 34.2146 30.3066 34.3604 30.2247L26.7877 22.652Z" fill="#D93F21"/>
<path d="M43.8843 22.9982C43.8843 21.9031 43.3317 20.7978 42.2364 20.1849C42.2364 20.1849 40.1881 19.042 33.9095 15.5302L26.4414 22.9982L33.9168 30.4737C40.1264 26.9871 42.2363 25.8115 42.2363 25.8115C43.3317 25.1987 43.8843 24.0934 43.8843 22.9982Z" fill="#FFD500"/>
<path d="M42.2364 25.8116C43.3317 25.1987 43.8843 24.0934 43.8843 22.9982H26.4414L33.9168 30.4737C40.1265 26.9872 42.2364 25.8116 42.2364 25.8116Z" fill="#FFAA00"/>
</g>
<path d="M74.888 24.568H83.312C83.36 24.76 83.4 24.992 83.432 25.264C83.464 25.536 83.48 25.808 83.48 26.08C83.48 27.184 83.312 28.224 82.976 29.2C82.64 30.176 82.112 31.048 81.392 31.816C80.624 32.632 79.704 33.264 78.632 33.712C77.56 34.16 76.336 34.384 74.96 34.384C73.712 34.384 72.536 34.16 71.432 33.712C70.328 33.264 69.368 32.64 68.552 31.84C67.736 31.04 67.088 30.096 66.608 29.008C66.128 27.904 65.888 26.704 65.888 25.408C65.888 24.112 66.128 22.92 66.608 21.832C67.088 20.728 67.736 19.776 68.552 18.976C69.368 18.176 70.328 17.552 71.432 17.104C72.536 16.656 73.712 16.432 74.96 16.432C76.352 16.432 77.592 16.672 78.68 17.152C79.784 17.632 80.728 18.296 81.512 19.144L79.28 21.328C78.72 20.736 78.096 20.288 77.408 19.984C76.72 19.664 75.896 19.504 74.936 19.504C74.152 19.504 73.408 19.648 72.704 19.936C72 20.208 71.384 20.6 70.856 21.112C70.328 21.624 69.904 22.248 69.584 22.984C69.28 23.704 69.128 24.512 69.128 25.408C69.128 26.304 69.28 27.12 69.584 27.856C69.904 28.576 70.328 29.192 70.856 29.704C71.4 30.216 72.024 30.616 72.728 30.904C73.432 31.176 74.184 31.312 74.984 31.312C75.896 31.312 76.664 31.184 77.288 30.928C77.928 30.656 78.472 30.312 78.92 29.896C79.24 29.608 79.512 29.248 79.736 28.816C79.976 28.368 80.16 27.872 80.288 27.328H74.888V24.568ZM91.9445 21.856C92.8565 21.856 93.6885 22.016 94.4405 22.336C95.2085 22.64 95.8645 23.072 96.4085 23.632C96.9685 24.176 97.4005 24.832 97.7045 25.6C98.0245 26.368 98.1845 27.208 98.1845 28.12C98.1845 29.032 98.0245 29.872 97.7045 30.64C97.4005 31.408 96.9685 32.072 96.4085 32.632C95.8645 33.176 95.2085 33.608 94.4405 33.928C93.6885 34.232 92.8565 34.384 91.9445 34.384C91.0325 34.384 90.1925 34.232 89.4245 33.928C88.6725 33.608 88.0165 33.176 87.4565 32.632C86.9125 32.072 86.4805 31.408 86.1605 30.64C85.8565 29.872 85.7045 29.032 85.7045 28.12C85.7045 27.208 85.8565 26.368 86.1605 25.6C86.4805 24.832 86.9125 24.176 87.4565 23.632C88.0165 23.072 88.6725 22.64 89.4245 22.336C90.1925 22.016 91.0325 21.856 91.9445 21.856ZM91.9445 31.48C92.3445 31.48 92.7285 31.408 93.0965 31.264C93.4805 31.104 93.8165 30.88 94.1045 30.592C94.3925 30.304 94.6165 29.952 94.7765 29.536C94.9525 29.12 95.0405 28.648 95.0405 28.12C95.0405 27.592 94.9525 27.12 94.7765 26.704C94.6165 26.288 94.3925 25.936 94.1045 25.648C93.8165 25.36 93.4805 25.144 93.0965 25C92.7285 24.84 92.3445 24.76 91.9445 24.76C91.5285 24.76 91.1365 24.84 90.7685 25C90.4005 25.144 90.0725 25.36 89.7845 25.648C89.4965 25.936 89.2645 26.288 89.0885 26.704C88.9285 27.12 88.8485 27.592 88.8485 28.12C88.8485 28.648 88.9285 29.12 89.0885 29.536C89.2645 29.952 89.4965 30.304 89.7845 30.592C90.0725 30.88 90.4005 31.104 90.7685 31.264C91.1365 31.408 91.5285 31.48 91.9445 31.48ZM106.493 21.856C107.405 21.856 108.237 22.016 108.989 22.336C109.757 22.64 110.413 23.072 110.957 23.632C111.517 24.176 111.949 24.832 112.253 25.6C112.573 26.368 112.733 27.208 112.733 28.12C112.733 29.032 112.573 29.872 112.253 30.64C111.949 31.408 111.517 32.072 110.957 32.632C110.413 33.176 109.757 33.608 108.989 33.928C108.237 34.232 107.405 34.384 106.493 34.384C105.581 34.384 104.741 34.232 103.973 33.928C103.221 33.608 102.565 33.176 102.005 32.632C101.461 32.072 101.029 31.408 100.709 30.64C100.405 29.872 100.253 29.032 100.253 28.12C100.253 27.208 100.405 26.368 100.709 25.6C101.029 24.832 101.461 24.176 102.005 23.632C102.565 23.072 103.221 22.64 103.973 22.336C104.741 22.016 105.581 21.856 106.493 21.856ZM106.493 31.48C106.893 31.48 107.277 31.408 107.645 31.264C108.029 31.104 108.365 30.88 108.653 30.592C108.941 30.304 109.165 29.952 109.325 29.536C109.501 29.12 109.589 28.648 109.589 28.12C109.589 27.592 109.501 27.12 109.325 26.704C109.165 26.288 108.941 25.936 108.653 25.648C108.365 25.36 108.029 25.144 107.645 25C107.277 24.84 106.893 24.76 106.493 24.76C106.077 24.76 105.685 24.84 105.317 25C104.949 25.144 104.621 25.36 104.333 25.648C104.045 25.936 103.813 26.288 103.637 26.704C103.477 27.12 103.397 27.592 103.397 28.12C103.397 28.648 103.477 29.12 103.637 29.536C103.813 29.952 104.045 30.304 104.333 30.592C104.621 30.88 104.949 31.104 105.317 31.264C105.685 31.408 106.077 31.48 106.493 31.48ZM120.897 39.568C120.065 39.568 119.321 39.456 118.665 39.232C118.025 39.024 117.465 38.744 116.985 38.392C116.505 38.056 116.105 37.68 115.785 37.264C115.465 36.848 115.233 36.432 115.089 36.016L118.089 34.816C118.313 35.44 118.681 35.92 119.193 36.256C119.705 36.608 120.273 36.784 120.897 36.784C121.889 36.784 122.673 36.472 123.249 35.848C123.825 35.24 124.113 34.384 124.113 33.28V32.464H123.921C123.553 32.976 123.065 33.384 122.457 33.688C121.865 33.976 121.161 34.12 120.345 34.12C119.641 34.12 118.953 33.976 118.281 33.688C117.625 33.4 117.041 32.992 116.529 32.464C116.017 31.92 115.601 31.272 115.281 30.52C114.961 29.768 114.801 28.928 114.801 28C114.801 27.072 114.961 26.232 115.281 25.48C115.601 24.712 116.017 24.064 116.529 23.536C117.041 22.992 117.625 22.576 118.281 22.288C118.953 22 119.641 21.856 120.345 21.856C121.161 21.856 121.865 22.008 122.457 22.312C123.065 22.6 123.553 23 123.921 23.512H124.113V22.24H127.113V33.16C127.113 34.152 126.961 35.04 126.657 35.824C126.353 36.624 125.929 37.296 125.385 37.84C124.841 38.4 124.185 38.824 123.417 39.112C122.665 39.416 121.825 39.568 120.897 39.568ZM121.017 31.288C121.401 31.288 121.777 31.216 122.145 31.072C122.529 30.928 122.865 30.72 123.153 30.448C123.441 30.16 123.673 29.816 123.849 29.416C124.025 29 124.113 28.528 124.113 28C124.113 27.472 124.025 27 123.849 26.584C123.673 26.168 123.441 25.824 123.153 25.552C122.865 25.264 122.529 25.048 122.145 24.904C121.777 24.76 121.401 24.688 121.017 24.688C120.633 24.688 120.257 24.76 119.889 24.904C119.521 25.048 119.193 25.264 118.905 25.552C118.617 25.84 118.385 26.192 118.209 26.608C118.033 27.008 117.945 27.472 117.945 28C117.945 28.528 118.033 29 118.209 29.416C118.385 29.816 118.617 30.16 118.905 30.448C119.193 30.72 119.521 30.928 119.889 31.072C120.257 31.216 120.633 31.288 121.017 31.288ZM130.513 34V16.816H133.657V34H130.513ZM148.088 31.168C147.544 32.128 146.808 32.904 145.88 33.496C144.968 34.088 143.848 34.384 142.52 34.384C141.624 34.384 140.792 34.232 140.024 33.928C139.272 33.608 138.616 33.168 138.056 32.608C137.496 32.048 137.056 31.392 136.736 30.64C136.432 29.872 136.28 29.032 136.28 28.12C136.28 27.272 136.432 26.472 136.736 25.72C137.04 24.952 137.464 24.288 138.008 23.728C138.552 23.152 139.192 22.696 139.928 22.36C140.68 22.024 141.504 21.856 142.4 21.856C143.344 21.856 144.184 22.016 144.92 22.336C145.656 22.64 146.272 23.072 146.768 23.632C147.264 24.176 147.64 24.824 147.896 25.576C148.152 26.328 148.28 27.144 148.28 28.024C148.28 28.136 148.28 28.232 148.28 28.312C148.264 28.408 148.256 28.496 148.256 28.576C148.24 28.656 148.232 28.744 148.232 28.84H139.376C139.44 29.32 139.568 29.736 139.76 30.088C139.968 30.424 140.216 30.712 140.504 30.952C140.808 31.176 141.136 31.344 141.488 31.456C141.84 31.552 142.2 31.6 142.568 31.6C143.288 31.6 143.88 31.44 144.344 31.12C144.824 30.784 145.2 30.368 145.472 29.872L148.088 31.168ZM145.232 26.608C145.216 26.4 145.144 26.168 145.016 25.912C144.904 25.656 144.728 25.416 144.488 25.192C144.264 24.968 143.976 24.784 143.624 24.64C143.288 24.496 142.88 24.424 142.4 24.424C141.728 24.424 141.136 24.616 140.624 25C140.112 25.384 139.752 25.92 139.544 26.608H145.232ZM157.385 34V16.816H163.433C164.249 16.816 165.009 16.952 165.713 17.224C166.433 17.48 167.057 17.848 167.585 18.328C168.113 18.808 168.529 19.384 168.833 20.056C169.137 20.712 169.289 21.44 169.289 22.24C169.289 23.056 169.137 23.8 168.833 24.472C168.529 25.128 168.113 25.696 167.585 26.176C167.057 26.656 166.433 27.032 165.713 27.304C165.009 27.56 164.249 27.688 163.433 27.688H160.625V34H157.385ZM163.481 24.616C164.329 24.616 164.969 24.376 165.401 23.896C165.833 23.416 166.049 22.864 166.049 22.24C166.049 21.936 165.993 21.64 165.881 21.352C165.785 21.064 165.625 20.816 165.401 20.608C165.193 20.384 164.929 20.208 164.609 20.08C164.289 19.952 163.913 19.888 163.481 19.888H160.625V24.616H163.481ZM172.042 34V16.816H175.186V34H172.042ZM185.728 32.752H185.536C185.168 33.2 184.72 33.584 184.192 33.904C183.68 34.224 183.016 34.384 182.2 34.384C181.592 34.384 181.016 34.28 180.472 34.072C179.944 33.88 179.48 33.608 179.08 33.256C178.68 32.904 178.368 32.48 178.144 31.984C177.92 31.488 177.808 30.944 177.808 30.352C177.808 29.744 177.928 29.2 178.168 28.72C178.408 28.224 178.744 27.8 179.176 27.448C179.608 27.096 180.112 26.832 180.688 26.656C181.28 26.464 181.92 26.368 182.608 26.368C183.376 26.368 184.008 26.432 184.504 26.56C185 26.672 185.408 26.792 185.728 26.92V26.56C185.728 25.936 185.48 25.424 184.984 25.024C184.488 24.608 183.872 24.4 183.136 24.4C182.048 24.4 181.128 24.856 180.376 25.768L178.096 24.208C179.344 22.64 181.048 21.856 183.208 21.856C185.032 21.856 186.424 22.288 187.384 23.152C188.344 24 188.824 25.264 188.824 26.944V34H185.728V32.752ZM185.728 29.224C185.36 29.048 184.976 28.912 184.576 28.816C184.192 28.704 183.768 28.648 183.304 28.648C182.552 28.648 181.968 28.816 181.552 29.152C181.152 29.472 180.952 29.872 180.952 30.352C180.952 30.832 181.144 31.216 181.528 31.504C181.928 31.792 182.384 31.936 182.896 31.936C183.312 31.936 183.696 31.864 184.048 31.72C184.4 31.56 184.696 31.36 184.936 31.12C185.192 30.864 185.384 30.576 185.512 30.256C185.656 29.92 185.728 29.576 185.728 29.224ZM195.506 33.424L190.562 22.24H194.138L197.114 29.368H197.282L200.138 22.24H203.642L196.274 39.184H192.89L195.506 33.424Z" fill="#67696D"/>
<defs>
<clipPath id="clip0_5_35">
<rect width="46" height="46" fill="white"/>
</clipPath>
</defs>
</svg>
