<svg width="333" height="63" viewBox="0 0 333 63" fill="none" xmlns="http://www.w3.org/2000/svg">
<path d="M91.6706 32.4191C91.6706 34.2386 91.8846 35.8796 92.3127 37.3423C92.7765 38.805 93.4187 40.0714 94.2392 41.1417C95.0954 42.1763 96.13 42.979 97.3429 43.5498C98.5559 44.1206 99.9472 44.406 101.517 44.406C103.051 44.406 104.424 44.1206 105.637 43.5498C106.886 42.979 107.921 42.1763 108.741 41.1417C109.597 40.0714 110.239 38.805 110.668 37.3423C111.131 35.8796 111.363 34.2386 111.363 32.4191C111.363 30.5997 111.131 28.9586 110.668 27.496C110.239 25.9976 109.597 24.7311 108.741 23.6965C107.921 22.6263 106.886 21.8058 105.637 21.235C104.424 20.6642 103.051 20.3788 101.517 20.3788C99.9472 20.3788 98.5559 20.682 97.3429 21.2885C96.13 21.8593 95.0954 22.6798 94.2392 23.7501C93.4187 24.7846 92.7765 26.0511 92.3127 27.5495C91.8846 29.0121 91.6706 30.6354 91.6706 32.4191ZM119.979 32.4191C119.979 35.0234 119.658 37.378 119.016 39.4828C118.373 41.552 117.464 43.3714 116.286 44.9411C115.145 46.5108 113.771 47.8129 112.166 48.8475C110.561 49.8821 108.795 50.6313 106.868 51.0951C107.047 51.8086 107.439 52.3794 108.045 52.8075C108.652 53.2712 109.419 53.6458 110.347 53.9312C111.274 54.2166 112.344 54.4307 113.557 54.5734C114.806 54.7161 116.144 54.841 117.571 54.948L115.858 61.0484C113.076 60.9414 110.685 60.656 108.688 60.1922C106.725 59.7641 105.049 59.1576 103.657 58.3728C102.302 57.5879 101.214 56.6247 100.393 55.4831C99.6083 54.3415 99.0018 53.0215 98.5737 51.5232C96.3619 51.2378 94.3105 50.6313 92.4198 49.7037C90.529 48.7405 88.8879 47.4562 87.4966 45.8508C86.1053 44.2454 85.0172 42.319 84.2323 40.0714C83.4475 37.8239 83.055 35.2731 83.055 32.4191C83.055 29.244 83.5545 26.4614 84.5534 24.0711C85.5523 21.6452 86.8901 19.6117 88.5668 17.9707C90.2792 16.3296 92.2414 15.0988 94.4532 14.2783C96.7008 13.4578 99.0553 13.0475 101.517 13.0475C104.05 13.0475 106.44 13.4578 108.688 14.2783C110.935 15.0988 112.897 16.3296 114.574 17.9707C116.251 19.6117 117.571 21.6452 118.534 24.0711C119.497 26.4614 119.979 29.244 119.979 32.4191ZM150.43 50.0248C149.074 50.4172 147.326 50.774 145.185 51.0951C143.045 51.4518 140.797 51.6302 138.443 51.6302C136.053 51.6302 134.055 51.3091 132.449 50.667C130.88 50.0248 129.631 49.1329 128.703 47.9913C127.776 46.814 127.116 45.4227 126.724 43.8173C126.331 42.212 126.135 40.446 126.135 38.5196V22.8403H134.108V37.5563C134.108 40.125 134.447 41.9801 135.125 43.1217C135.803 44.2633 137.069 44.8341 138.924 44.8341C139.495 44.8341 140.102 44.8162 140.744 44.7806C141.386 44.7092 141.957 44.6379 142.456 44.5665V22.8403H150.43V50.0248ZM165.888 50.988H157.914V22.8403H165.888V50.988ZM166.637 14.7064C166.637 16.1691 166.155 17.3285 165.192 18.1847C164.264 19.0053 163.159 19.4155 161.874 19.4155C160.59 19.4155 159.466 19.0053 158.503 18.1847C157.575 17.3285 157.112 16.1691 157.112 14.7064C157.112 13.2437 157.575 12.1021 158.503 11.2816C159.466 10.4254 160.59 9.99729 161.874 9.99729C163.159 9.99729 164.264 10.4254 165.192 11.2816C166.155 12.1021 166.637 13.2437 166.637 14.7064ZM194.52 28.1916C193.878 28.9051 193.004 29.8683 191.898 31.0813C190.828 32.2943 189.669 33.6321 188.42 35.0948C187.171 36.5574 185.905 38.0915 184.621 39.6969C183.372 41.3022 182.23 42.8541 181.196 44.3525H194.788V50.988H171.51V46.2789C172.259 44.9946 173.151 43.6211 174.186 42.1584C175.256 40.6601 176.362 39.1617 177.503 37.6634C178.681 36.165 179.84 34.7202 180.982 33.3288C182.123 31.9018 183.176 30.6175 184.139 29.4759H172.152V22.8403H194.52V28.1916ZM230.44 51.7372C224.411 51.7372 219.809 50.0605 216.634 46.707C213.494 43.3536 211.925 38.5909 211.925 32.4191C211.925 29.3511 212.406 26.6219 213.369 24.2317C214.333 21.8058 215.653 19.7723 217.329 18.1312C219.006 16.4545 221.004 15.188 223.323 14.3318C225.642 13.4756 228.157 13.0475 230.868 13.0475C232.438 13.0475 233.865 13.1724 235.149 13.4221C236.433 13.6362 237.557 13.9037 238.52 14.2248C239.484 14.5102 240.286 14.8134 240.928 15.1345C241.571 15.4556 242.034 15.7053 242.32 15.8837L239.912 22.6263C238.77 22.0198 237.432 21.5025 235.898 21.0744C234.4 20.6463 232.687 20.4323 230.761 20.4323C229.477 20.4323 228.21 20.6463 226.962 21.0744C225.749 21.5025 224.661 22.1982 223.697 23.1614C222.77 24.089 222.021 25.3019 221.45 26.8003C220.879 28.2986 220.594 30.1181 220.594 32.2586C220.594 33.971 220.772 35.5764 221.129 37.0747C221.521 38.5374 222.128 39.8039 222.948 40.8741C223.804 41.9444 224.91 42.8006 226.266 43.4427C227.622 44.0492 229.263 44.3525 231.189 44.3525C232.402 44.3525 233.49 44.2811 234.453 44.1384C235.417 43.9957 236.273 43.8352 237.022 43.6568C237.771 43.4427 238.431 43.2109 239.002 42.9611C239.573 42.7114 240.09 42.4795 240.554 42.2655L242.855 48.9546C241.678 49.6681 240.019 50.3102 237.878 50.881C235.738 51.4518 233.258 51.7372 230.44 51.7372ZM258.973 45.4227C259.758 45.4227 260.507 45.4049 261.221 45.3692C261.934 45.3335 262.505 45.28 262.933 45.2087V39.1617C262.612 39.0904 262.13 39.019 261.488 38.9477C260.846 38.8763 260.257 38.8406 259.722 38.8406C258.973 38.8406 258.26 38.8942 257.582 39.0012C256.94 39.0725 256.369 39.2331 255.869 39.4828C255.37 39.7325 254.977 40.0714 254.692 40.4995C254.407 40.9276 254.264 41.4628 254.264 42.1049C254.264 43.3536 254.674 44.2276 255.495 44.727C256.351 45.1908 257.51 45.4227 258.973 45.4227ZM258.331 22.0912C260.686 22.0912 262.648 22.3587 264.217 22.8939C265.787 23.429 267.036 24.196 267.963 25.1949C268.926 26.1938 269.604 27.4068 269.997 28.8338C270.389 30.2608 270.585 31.8483 270.585 33.5964V50.1853C269.444 50.4351 267.856 50.7205 265.823 51.0415C263.789 51.3983 261.328 51.5767 258.438 51.5767C256.619 51.5767 254.96 51.4161 253.461 51.0951C251.999 50.774 250.732 50.2567 249.662 49.5432C248.592 48.794 247.771 47.8308 247.2 46.6535C246.629 45.4762 246.344 44.0314 246.344 42.319C246.344 40.6779 246.665 39.2866 247.307 38.145C247.985 37.0034 248.877 36.0937 249.983 35.4158C251.089 34.738 252.355 34.2564 253.782 33.971C255.209 33.6499 256.69 33.4894 258.224 33.4894C259.258 33.4894 260.168 33.5429 260.953 33.6499C261.774 33.7213 262.434 33.8283 262.933 33.971V33.2218C262.933 31.8662 262.523 30.7781 261.702 29.9575C260.882 29.137 259.455 28.7267 257.421 28.7267C256.066 28.7267 254.728 28.8338 253.408 29.0478C252.088 29.2262 250.946 29.4938 249.983 29.8505L248.966 23.429C249.43 23.2863 250.001 23.1436 250.679 23.0009C251.392 22.8225 252.159 22.6798 252.98 22.5728C253.8 22.4301 254.656 22.3231 255.548 22.2517C256.476 22.1447 257.403 22.0912 258.331 22.0912ZM285.876 45.2622C287.338 45.2622 288.373 45.1195 288.98 44.8341C289.586 44.5487 289.889 43.9957 289.889 43.1752C289.889 42.533 289.497 41.9801 288.712 41.5163C287.927 41.0168 286.732 40.4639 285.127 39.8574C283.878 39.3936 282.736 38.912 281.702 38.4125C280.703 37.9131 279.847 37.3245 279.133 36.6466C278.42 35.9331 277.867 35.0948 277.474 34.1315C277.082 33.1683 276.886 32.0089 276.886 30.6532C276.886 28.0132 277.867 25.9262 279.829 24.3922C281.791 22.8582 284.484 22.0912 287.909 22.0912C289.622 22.0912 291.263 22.2517 292.832 22.5728C294.402 22.8582 295.651 23.1793 296.578 23.536L295.187 29.7435C294.259 29.4224 293.243 29.137 292.137 28.8873C291.067 28.6376 289.854 28.5127 288.498 28.5127C286.001 28.5127 284.752 29.2084 284.752 30.5997C284.752 30.9208 284.806 31.2062 284.913 31.4559C285.02 31.7056 285.234 31.9553 285.555 32.2051C285.876 32.4191 286.304 32.6688 286.839 32.9542C287.41 33.204 288.123 33.4894 288.98 33.8105C290.728 34.4526 292.172 35.0948 293.314 35.7369C294.456 36.3434 295.348 37.0212 295.99 37.7704C296.668 38.4839 297.131 39.2866 297.381 40.1785C297.666 41.0703 297.809 42.1049 297.809 43.2822C297.809 46.0649 296.757 48.1697 294.652 49.5967C292.583 51.0237 289.64 51.7372 285.822 51.7372C283.325 51.7372 281.238 51.5232 279.561 51.0951C277.92 50.667 276.779 50.3102 276.136 50.0248L277.474 43.5498C278.83 44.0849 280.221 44.513 281.648 44.8341C283.075 45.1195 284.484 45.2622 285.876 45.2622ZM303.768 50.988V10.7465L311.741 9.46216V22.9474C312.276 22.769 312.954 22.6085 313.775 22.4658C314.631 22.2874 315.451 22.1982 316.236 22.1982C318.52 22.1982 320.41 22.5193 321.909 23.1614C323.443 23.7679 324.656 24.6419 325.548 25.7835C326.475 26.9251 327.117 28.2808 327.474 29.8505C327.866 31.4202 328.063 33.1683 328.063 35.0948V50.988H320.089V36.058C320.089 33.4894 319.75 31.6699 319.072 30.5997C318.43 29.5294 317.217 28.9943 315.434 28.9943C314.72 28.9943 314.042 29.0657 313.4 29.2084C312.794 29.3154 312.241 29.4402 311.741 29.5829V50.988H303.768Z" fill="white"/>
<path d="M64.893 29.6583H63.2576V19.832C63.2576 15.8141 59.9869 12.5575 55.983 12.5575H54.4746L54.4887 8.90609C54.4887 6.19928 52.2894 4 49.5826 4H5.96344C2.70681 4 0.0422939 6.62222 0 9.87885C0 9.90705 0 9.93524 0 9.96344V58.0939C0 60.8007 2.19928 63 4.90609 63H55.9971C60.0151 63 63.2717 59.7293 63.2717 55.7255V45.8851H64.907C67.0217 45.8851 68.7417 44.1651 68.7417 42.0504V33.493C68.7276 31.3783 67.0076 29.6583 64.893 29.6583ZM5.96344 7.38351H49.5826C50.4143 7.38351 51.1051 8.06022 51.1051 8.892L51.091 12.5575H5.96344C4.53955 12.5575 3.38351 11.4014 3.38351 9.97754C3.38351 8.55364 4.53955 7.38351 5.96344 7.38351ZM59.8741 55.7114C59.8741 57.8542 58.1259 59.6024 55.983 59.6024H4.892C4.06022 59.6024 3.36941 58.9257 3.36941 58.0798V15.3489C4.1589 15.7295 5.03297 15.941 5.96344 15.941H55.983C58.1259 15.941 59.8741 17.6891 59.8741 19.832V29.6583H48.3278C46.2131 29.6583 44.4932 31.3783 44.4932 33.493V42.0504C44.4932 44.1651 46.2131 45.8851 48.3278 45.8851H59.8741V55.7114ZM65.3441 42.0504C65.3441 42.3042 65.1467 42.5016 64.893 42.5016H48.3419C48.0882 42.5016 47.8908 42.3042 47.8908 42.0504V33.493C47.8908 33.2533 48.0882 33.0418 48.3419 33.0418H64.893C65.1326 33.0418 65.3441 33.2392 65.3441 33.493V42.0504Z" fill="white"/>
</svg>
