<svg width="75" height="15" viewBox="0 0 75 15" fill="none" xmlns="http://www.w3.org/2000/svg">
<g clip-path="url(#clip0_5_456)">
<path d="M51.7652 10.6426L55.5736 12.9412L54.563 8.60896L57.9277 5.69409L53.4968 5.31817L51.7652 1.23242L50.0335 5.31817L45.6027 5.69409L48.9674 8.60896L47.9567 12.9412L51.7652 10.6426Z" fill="#01875F"/>
</g>
<g clip-path="url(#clip1_5_456)">
<path d="M67.3951 10.6426L71.2035 12.9412L70.1928 8.60896L73.5576 5.69409L69.1267 5.31817L67.3951 1.23242L65.6634 5.31817L61.2325 5.69409L64.5973 8.60896L63.5866 12.9412L67.3951 10.6426Z" fill="#01875F"/>
</g>
<g clip-path="url(#clip2_5_456)">
<path d="M36.9751 10.6426L40.7836 12.9412L39.7729 8.60896L43.1377 5.69409L38.7068 5.31817L36.9751 1.23242L35.2435 5.31817L30.8126 5.69409L34.1774 8.60896L33.1667 12.9412L36.9751 10.6426Z" fill="#01875F"/>
</g>
<g clip-path="url(#clip3_5_456)">
<path d="M22.1851 10.6426L25.9935 12.9412L24.9829 8.60896L28.3476 5.69409L23.9168 5.31817L22.1851 1.23242L20.4534 5.31817L16.0226 5.69409L19.3873 8.60896L18.3767 12.9412L22.1851 10.6426Z" fill="#01875F"/>
</g>
<g clip-path="url(#clip4_5_456)">
<path d="M7.39506 10.6426L11.2035 12.9412L10.1928 8.60896L13.5576 5.69409L9.12673 5.31817L7.39506 1.23242L5.66339 5.31817L1.23254 5.69409L4.59728 8.60896L3.58663 12.9412L7.39506 10.6426Z" fill="#01875F"/>
</g>
<defs>
<clipPath id="clip0_5_456">
<rect width="14.79" height="14.79" fill="white" transform="translate(44.3701)"/>
</clipPath>
<clipPath id="clip1_5_456">
<rect width="14.79" height="14.79" fill="white" transform="translate(60)"/>
</clipPath>
<clipPath id="clip2_5_456">
<rect width="14.79" height="14.79" fill="white" transform="translate(29.5801)"/>
</clipPath>
<clipPath id="clip3_5_456">
<rect width="14.79" height="14.79" fill="white" transform="translate(14.79)"/>
</clipPath>
<clipPath id="clip4_5_456">
<rect width="14.79" height="14.79" fill="white"/>
</clipPath>
</defs>
</svg>
