<svg width="74" height="15" viewBox="0 0 74 15" fill="none" xmlns="http://www.w3.org/2000/svg">
<g clip-path="url(#clip0_5_423)">
<path d="M51.7652 10.6428L55.5736 12.9415L54.563 8.6092L57.9277 5.69433L53.4968 5.31842L51.7652 1.23267L50.0335 5.31842L45.6027 5.69433L48.9674 8.6092L47.9567 12.9415L51.7652 10.6428Z" fill="#01875F"/>
</g>
<g clip-path="url(#clip1_5_423)">
<path d="M66.3951 10.6426L70.2035 12.9412L69.1928 8.60896L72.5576 5.69409L68.1267 5.31817L66.3951 1.23242L64.6634 5.31817L60.2325 5.69409L63.5973 8.60896L62.5866 12.9412L66.3951 10.6426Z" fill="#01875F"/>
</g>
<g clip-path="url(#clip2_5_423)">
<path d="M36.9751 10.6428L40.7836 12.9415L39.7729 8.6092L43.1377 5.69433L38.7068 5.31842L36.9751 1.23267L35.2435 5.31842L30.8126 5.69433L34.1774 8.6092L33.1667 12.9415L36.9751 10.6428Z" fill="#01875F"/>
</g>
<g clip-path="url(#clip3_5_423)">
<path d="M22.1851 10.6428L25.9935 12.9415L24.9829 8.6092L28.3476 5.69433L23.9168 5.31842L22.1851 1.23267L20.4534 5.31842L16.0226 5.69433L19.3873 8.6092L18.3767 12.9415L22.1851 10.6428Z" fill="#01875F"/>
</g>
<g clip-path="url(#clip4_5_423)">
<path d="M7.39506 10.6428L11.2035 12.9415L10.1928 8.6092L13.5576 5.69433L9.12673 5.31842L7.39506 1.23267L5.66339 5.31842L1.23254 5.69433L4.59728 8.6092L3.58663 12.9415L7.39506 10.6428Z" fill="#01875F"/>
</g>
<defs>
<clipPath id="clip0_5_423">
<rect width="14.79" height="14.79" fill="white" transform="translate(44.3701)"/>
</clipPath>
<clipPath id="clip1_5_423">
<rect width="14.79" height="14.79" fill="white" transform="translate(59)"/>
</clipPath>
<clipPath id="clip2_5_423">
<rect width="14.79" height="14.79" fill="white" transform="translate(29.5801)"/>
</clipPath>
<clipPath id="clip3_5_423">
<rect width="14.79" height="14.79" fill="white" transform="translate(14.79)"/>
</clipPath>
<clipPath id="clip4_5_423">
<rect width="14.79" height="14.79" fill="white"/>
</clipPath>
</defs>
</svg>
