<svg width="74" height="15" viewBox="0 0 74 15" fill="none" xmlns="http://www.w3.org/2000/svg">
<g clip-path="url(#clip0_5_386)">
<path d="M51.7652 10.6427L55.5736 12.9413L54.563 8.60908L57.9277 5.69421L53.4968 5.31829L51.7652 1.23254L50.0335 5.31829L45.6027 5.69421L48.9674 8.60908L47.9567 12.9413L51.7652 10.6427Z" fill="#01875F"/>
</g>
<g clip-path="url(#clip1_5_386)">
<path d="M36.9751 10.6427L40.7836 12.9413L39.7729 8.60908L43.1377 5.69421L38.7068 5.31829L36.9751 1.23254L35.2435 5.31829L30.8126 5.69421L34.1774 8.60908L33.1667 12.9413L36.9751 10.6427Z" fill="#01875F"/>
</g>
<g clip-path="url(#clip2_5_386)">
<path d="M22.1851 10.6427L25.9935 12.9413L24.9829 8.60908L28.3476 5.69421L23.9168 5.31829L22.1851 1.23254L20.4534 5.31829L16.0226 5.69421L19.3873 8.60908L18.3767 12.9413L22.1851 10.6427Z" fill="#01875F"/>
</g>
<g clip-path="url(#clip3_5_386)">
<path d="M7.39506 10.6427L11.2035 12.9413L10.1928 8.60908L13.5576 5.69421L9.12673 5.31829L7.39506 1.23254L5.66339 5.31829L1.23254 5.69421L4.59728 8.60908L3.58663 12.9413L7.39506 10.6427Z" fill="#01875F"/>
</g>
<g clip-path="url(#clip4_5_386)">
<path d="M72.5576 5.69421L68.1267 5.31213L66.3951 1.23254L64.6634 5.31829L60.2325 5.69421L63.5973 8.60908L62.5866 12.9413L66.3951 10.6427L70.2035 12.9413L69.199 8.60908L72.5576 5.69421ZM66.3951 9.49032V3.75918L67.4489 6.24883L70.148 6.48301L68.1021 8.25782L68.7183 10.8954L66.3951 9.49032Z" fill="#01875F"/>
</g>
<defs>
<clipPath id="clip0_5_386">
<rect width="14.79" height="14.79" fill="white" transform="translate(44.3701)"/>
</clipPath>
<clipPath id="clip1_5_386">
<rect width="14.79" height="14.79" fill="white" transform="translate(29.5801)"/>
</clipPath>
<clipPath id="clip2_5_386">
<rect width="14.79" height="14.79" fill="white" transform="translate(14.79)"/>
</clipPath>
<clipPath id="clip3_5_386">
<rect width="14.79" height="14.79" fill="white"/>
</clipPath>
<clipPath id="clip4_5_386">
<rect width="14.79" height="14.79" fill="white" transform="translate(59)"/>
</clipPath>
</defs>
</svg>
