<svg width="497" height="122" viewBox="0 0 497 122" fill="none" xmlns="http://www.w3.org/2000/svg">
<rect x="170.666" y="82.8658" width="325.381" height="11.832" rx="5.91602" fill="#DBDBDB"/>
<path d="M153.745 118.53H152.402V109.626L149.708 110.615V109.402L153.536 107.965H153.745V118.53Z" fill="black" fill-opacity="0.8"/>
<path d="M156.244 94.8658H149.354V93.9054L152.994 89.8612C153.533 89.2498 153.904 88.7539 154.106 88.3735C154.313 87.9884 154.417 87.5912 154.417 87.182C154.417 86.6331 154.251 86.183 153.918 85.8315C153.586 85.48 153.143 85.3043 152.59 85.3043C151.925 85.3043 151.408 85.4945 151.037 85.8748C150.671 86.2504 150.488 86.7751 150.488 87.4492H149.152C149.152 86.4814 149.463 85.6991 150.084 85.1021C150.71 84.5051 151.545 84.2066 152.59 84.2066C153.567 84.2066 154.34 84.4642 154.908 84.9793C155.476 85.4897 155.76 86.1709 155.76 87.0231C155.76 88.0582 155.1 89.2907 153.781 90.7206L150.965 93.7754H156.244V94.8658Z" fill="black" fill-opacity="0.8"/>
<path d="M151.297 65.2947H152.301C152.931 65.285 153.427 65.1189 153.788 64.7964C154.15 64.4738 154.33 64.0381 154.33 63.4892C154.33 62.2567 153.716 61.6405 152.489 61.6405C151.911 61.6405 151.449 61.8066 151.102 62.1388C150.76 62.4662 150.589 62.9019 150.589 63.4459H149.253C149.253 62.613 149.557 61.9221 150.163 61.3733C150.775 60.8196 151.55 60.5428 152.489 60.5428C153.48 60.5428 154.258 60.8052 154.821 61.33C155.384 61.8547 155.666 62.5841 155.666 63.5181C155.666 63.9755 155.517 64.4184 155.218 64.8469C154.925 65.2754 154.523 65.5956 154.012 65.8074C154.59 65.9904 155.035 66.2937 155.348 66.7173C155.666 67.141 155.825 67.6586 155.825 68.27C155.825 69.2137 155.517 69.9623 154.901 70.516C154.284 71.0696 153.483 71.3465 152.496 71.3465C151.509 71.3465 150.705 71.0793 150.084 70.5449C149.467 70.0104 149.159 69.3051 149.159 68.4289H150.503C150.503 68.9826 150.683 69.4255 151.044 69.7577C151.405 70.0899 151.889 70.256 152.496 70.256C153.141 70.256 153.634 70.0875 153.976 69.7505C154.318 69.4135 154.489 68.9296 154.489 68.2989C154.489 67.6875 154.301 67.2181 153.926 66.8907C153.55 66.5633 153.008 66.3948 152.301 66.3852H151.297V65.2947Z" fill="black" fill-opacity="0.8"/>
<path d="M151.044 18.8693L149.975 18.5948L150.503 13.3591H155.897V14.594H151.636L151.319 17.4538C151.511 17.3431 151.754 17.2396 152.048 17.1433C152.346 17.047 152.688 16.9988 153.073 16.9988C153.56 16.9988 153.995 17.0831 154.381 17.2516C154.766 17.4153 155.093 17.6512 155.363 17.9593C155.637 18.2675 155.847 18.6382 155.991 19.0715C156.135 19.5048 156.208 19.9886 156.208 20.523C156.208 21.0286 156.138 21.4931 155.998 21.9168C155.863 22.3405 155.659 22.7112 155.384 23.029C155.11 23.3419 154.763 23.585 154.344 23.7584C153.93 23.9317 153.442 24.0183 152.878 24.0183C152.455 24.0183 152.053 23.9606 151.672 23.845C151.297 23.7247 150.96 23.5441 150.661 23.3034C150.368 23.0578 150.127 22.7545 149.939 22.3935C149.756 22.0276 149.641 21.5991 149.593 21.108H150.864C150.921 21.5028 151.037 21.835 151.21 22.1046C151.384 22.3742 151.61 22.5788 151.889 22.7184C152.173 22.8532 152.503 22.9206 152.878 22.9206C153.196 22.9206 153.478 22.8653 153.723 22.7545C153.969 22.6438 154.176 22.4849 154.344 22.2779C154.513 22.0709 154.641 21.8205 154.727 21.5268C154.819 21.2332 154.864 20.9034 154.864 20.5375C154.864 20.2053 154.819 19.8972 154.727 19.6131C154.636 19.329 154.499 19.0811 154.316 18.8693C154.137 18.6574 153.918 18.4937 153.658 18.3782C153.398 18.2578 153.1 18.1976 152.763 18.1976C152.315 18.1976 151.976 18.2578 151.745 18.3782C151.518 18.4985 151.285 18.6622 151.044 18.8693Z" fill="black" fill-opacity="0.8"/>
<path d="M154.994 44.0064H156.453V45.0969H154.994V47.5378H153.651V45.0969H148.863V44.3097L153.572 37.023H154.994V44.0064ZM150.38 44.0064H153.651V38.8501L153.492 39.139L150.38 44.0064Z" fill="black" fill-opacity="0.8"/>
<rect x="170.666" y="11.8739" width="325.381" height="11.832" rx="5.91602" fill="#DBDBDB"/>
<rect x="170.666" y="59.202" width="325.381" height="11.832" rx="5.91602" fill="#DBDBDB"/>
<rect x="170.666" y="35.5378" width="325.381" height="11.832" rx="5.91602" fill="#DBDBDB"/>
<rect x="170.666" y="35.5378" width="65.0762" height="11.832" rx="5.91602" fill="#01875F"/>
<rect x="170.666" y="35.5378" width="65.0762" height="11.832" rx="5.91602" fill="#01875F"/>
<rect x="170.666" y="84.3448" width="59.1602" height="11.832" rx="5.91602" fill="#01875F"/>
<rect x="170.666" y="84.3448" width="59.1602" height="11.832" rx="5.91602" fill="#01875F"/>
<rect x="170.666" y="106.53" width="325.381" height="11.832" rx="5.91602" fill="#DBDBDB"/>
<rect x="170.666" y="59.202" width="59.1602" height="11.832" rx="5.91602" fill="#01875F"/>
<rect x="170.666" y="59.202" width="59.1602" height="11.832" rx="5.91602" fill="#01875F"/>
<rect x="170.666" y="106.53" width="35.4961" height="11.832" rx="5.91602" fill="#01875F"/>
<rect x="170.666" y="106.53" width="35.4961" height="11.832" rx="5.91602" fill="#01875F"/>
<rect x="170.666" y="11.8739" width="292.843" height="11.832" rx="5.91602" fill="#01875F"/>
<rect x="170.666" y="11.8739" width="292.843" height="11.832" rx="5.91602" fill="#01875F"/>
<g clip-path="url(#clip0_5_269)">
<path d="M52.3451 94.9876L56.1536 97.2862L55.1429 92.9539L58.5077 90.0391L54.0768 89.6631L52.3451 85.5774L50.6135 89.6631L46.1826 90.0391L49.5474 92.9539L48.5367 97.2862L52.3451 94.9876Z" fill="#01875F"/>
</g>
<g clip-path="url(#clip1_5_269)">
<path d="M37.5551 94.9876L41.3635 97.2862L40.3529 92.9539L43.7176 90.0391L39.2868 89.6631L37.5551 85.5774L35.8234 89.6631L31.3926 90.0391L34.7573 92.9539L33.7467 97.2862L37.5551 94.9876Z" fill="#01875F"/>
</g>
<g clip-path="url(#clip2_5_269)">
<path d="M22.7651 94.9876L26.5735 97.2862L25.5628 92.9539L28.9276 90.0391L24.4967 89.6631L22.7651 85.5774L21.0334 89.6631L16.6025 90.0391L19.9673 92.9539L18.9566 97.2862L22.7651 94.9876Z" fill="#01875F"/>
</g>
<g clip-path="url(#clip3_5_269)">
<path d="M7.97502 94.9876L11.7835 97.2862L10.7728 92.9539L14.1375 90.0391L9.70669 89.6631L7.97502 85.5774L6.24335 89.6631L1.8125 90.0391L5.17723 92.9539L4.16658 97.2862L7.97502 94.9876Z" fill="#01875F"/>
</g>
<g clip-path="url(#clip4_5_269)">
<path d="M73.2977 90.0391L68.8668 89.657L67.1352 85.5774L65.4035 89.6631L60.9727 90.0391L64.3374 92.9539L63.3267 97.2862L67.1352 94.9876L70.9436 97.2862L69.9391 92.9539L73.2977 90.0391ZM67.1352 93.8352V88.104L68.189 90.5937L70.8881 90.8279L68.8422 92.6027L69.4584 95.2402L67.1352 93.8352Z" fill="#01875F"/>
</g>
<path d="M5.8447 118.53H4.50146V109.626L1.80777 110.615V109.402L5.63527 107.965H5.8447V118.53ZM10.2964 120.624L9.53817 120.104C9.99073 119.474 10.2266 118.824 10.2459 118.155V116.948H11.553V117.996C11.553 118.482 11.4327 118.968 11.1919 119.454C10.956 119.941 10.6575 120.331 10.2964 120.624ZM20.4389 118.53H13.5494V117.57L17.1891 113.525C17.7283 112.914 18.0991 112.418 18.3013 112.038C18.5083 111.653 18.6118 111.255 18.6118 110.846C18.6118 110.297 18.4457 109.847 18.1135 109.496C17.7813 109.144 17.3384 108.968 16.7847 108.968C16.1203 108.968 15.6028 109.159 15.232 109.539C14.8661 109.915 14.6832 110.439 14.6832 111.113H13.3472C13.3472 110.146 13.6577 109.363 14.2788 108.766C14.9047 108.169 15.74 107.871 16.7847 107.871C17.762 107.871 18.5348 108.128 19.1029 108.644C19.671 109.154 19.955 109.835 19.955 110.687C19.955 111.722 19.2955 112.955 17.9763 114.385L15.1598 117.44H20.4389V118.53ZM27.541 108.008V109.142H27.2955C26.2555 109.161 25.4274 109.469 24.8112 110.066C24.1949 110.663 23.8387 111.503 23.7424 112.587C24.296 111.951 25.0519 111.633 26.01 111.633C26.9247 111.633 27.6541 111.956 28.1982 112.601C28.747 113.246 29.0214 114.079 29.0214 115.1C29.0214 116.183 28.7254 117.05 28.1332 117.7C27.5458 118.349 26.7562 118.674 25.7645 118.674C24.7582 118.674 23.9422 118.289 23.3163 117.519C22.6904 116.744 22.3775 115.747 22.3775 114.529V114.016C22.3775 112.081 22.7891 110.603 23.6124 109.582C24.4405 108.557 25.6706 108.032 27.3027 108.008H27.541ZM25.7861 112.745C25.3288 112.745 24.9075 112.883 24.5223 113.157C24.1372 113.432 23.87 113.776 23.7207 114.19V114.681C23.7207 115.547 23.9157 116.246 24.3057 116.775C24.6956 117.305 25.1819 117.57 25.7645 117.57C26.3663 117.57 26.8381 117.348 27.1799 116.905C27.5266 116.462 27.6999 115.882 27.6999 115.165C27.6999 114.443 27.5241 113.86 27.1727 113.417C26.8261 112.969 26.3639 112.745 25.7861 112.745ZM31.6605 113.258L32.195 108.015H37.5823V109.25H33.3288L33.011 112.117C33.5262 111.814 34.1111 111.662 34.7659 111.662C35.724 111.662 36.4846 111.98 37.0479 112.615C37.6112 113.246 37.8929 114.101 37.8929 115.179C37.8929 116.262 37.5992 117.117 37.0118 117.743C36.4293 118.364 35.6132 118.674 34.5637 118.674C33.6345 118.674 32.8762 118.417 32.2888 117.902C31.7015 117.387 31.3669 116.674 31.285 115.764H32.5488C32.6307 116.366 32.8449 116.821 33.1915 117.129C33.5382 117.432 33.9956 117.584 34.5637 117.584C35.1847 117.584 35.671 117.372 36.0225 116.948C36.3787 116.525 36.5569 115.94 36.5569 115.194C36.5569 114.491 36.3643 113.927 35.9791 113.504C35.5988 113.075 35.0909 112.861 34.4553 112.861C33.8728 112.861 33.4154 112.989 33.0832 113.244L32.7294 113.533L31.6605 113.258Z" fill="black" fill-opacity="0.8"/>
<path d="M33.0235 50.8187V61.0416H26.4922V50.8187H3.41977V45.8493L25.9243 12.483H33.0235V44.7134H39.2708V50.8187H33.0235ZM10.803 44.7134H26.4922V22.0669H26.2083L10.803 44.7134ZM57.5774 56.6401C57.5774 57.9653 57.1041 59.1012 56.1576 60.0477C55.2583 60.9943 54.1224 61.4676 52.7499 61.4676C51.4247 61.4676 50.2889 60.9943 49.3423 60.0477C48.3957 59.1012 47.9225 57.9653 47.9225 56.6401C47.9225 55.2676 48.3957 54.1317 49.3423 53.2325C50.2889 52.2859 51.4247 51.8126 52.7499 51.8126C54.1224 51.8126 55.2583 52.2859 56.1576 53.2325C57.1041 54.1317 57.5774 55.2676 57.5774 56.6401ZM97.434 19.1562L73.8646 62.1775L68.0432 59.1958L90.5477 18.7303H65.9844L66.1264 12.483H97.434V19.1562Z" fill="black" fill-opacity="0.8"/>
<defs>
<clipPath id="clip0_5_269">
<rect width="14.79" height="14.79" fill="white" transform="translate(44.9502 84.3448)"/>
</clipPath>
<clipPath id="clip1_5_269">
<rect width="14.79" height="14.79" fill="white" transform="translate(30.1602 84.3448)"/>
</clipPath>
<clipPath id="clip2_5_269">
<rect width="14.79" height="14.79" fill="white" transform="translate(15.3701 84.3448)"/>
</clipPath>
<clipPath id="clip3_5_269">
<rect width="14.79" height="14.79" fill="white" transform="translate(0.580078 84.3448)"/>
</clipPath>
<clipPath id="clip4_5_269">
<rect width="14.79" height="14.79" fill="white" transform="translate(59.7402 84.3448)"/>
</clipPath>
</defs>
</svg>
