<svg width="20" height="20" viewBox="0 0 20 20" fill="none" xmlns="http://www.w3.org/2000/svg">
<path d="M18.3333 9.99992C18.3333 6.85722 18.3333 5.28588 17.357 4.30956C16.3807 3.33325 14.8093 3.33325 11.6666 3.33325H8.33329C5.19059 3.33325 3.61925 3.33325 2.64293 4.30956C1.66663 5.28588 1.66663 6.85722 1.66663 9.99992C1.66663 13.1426 1.66663 14.714 2.64293 15.6903C3.61925 16.6666 5.19059 16.6666 8.33329 16.6666H11.6666C14.8093 16.6666 16.3807 16.6666 17.357 15.6903C17.9013 15.1459 18.1421 14.4167 18.2487 13.3333" stroke="url(#paint0_linear_15_410)" stroke-width="1.25" stroke-linecap="round"/>
<path d="M8.33333 13.3333H5" stroke="url(#paint1_linear_15_410)" stroke-width="1.25" stroke-linecap="round"/>
<path d="M11.6666 13.3333H10.4166" stroke="url(#paint2_linear_15_410)" stroke-width="1.25" stroke-linecap="round"/>
<path d="M1.66663 8.33325H5.83329M18.3333 8.33325H9.16663" stroke="url(#paint3_linear_15_410)" stroke-width="1.25" stroke-linecap="round"/>
<defs>
<linearGradient id="paint0_linear_15_410" x1="1" y1="4" x2="18" y2="24.5" gradientUnits="userSpaceOnUse">
<stop stop-color="#3763FF"/>
<stop offset="1" stop-color="#27E9F7"/>
</linearGradient>
<linearGradient id="paint1_linear_15_410" x1="6.66667" y1="13.3333" x2="6.66667" y2="14.3333" gradientUnits="userSpaceOnUse">
<stop stop-color="#3763FF"/>
<stop offset="1" stop-color="#27E9F7"/>
</linearGradient>
<linearGradient id="paint2_linear_15_410" x1="11.0416" y1="13.3333" x2="11.0416" y2="14.3333" gradientUnits="userSpaceOnUse">
<stop stop-color="#3763FF"/>
<stop offset="1" stop-color="#27E9F7"/>
</linearGradient>
<linearGradient id="paint3_linear_15_410" x1="9.99996" y1="8.33325" x2="9.99996" y2="9.33325" gradientUnits="userSpaceOnUse">
<stop stop-color="#3763FF"/>
<stop offset="1" stop-color="#27E9F7"/>
</linearGradient>
</defs>
</svg>
