<svg width="80" height="80" viewBox="0 0 80 80" fill="none" xmlns="http://www.w3.org/2000/svg">
<path fill-rule="evenodd" clip-rule="evenodd" d="M40 0C47.9112 0 55.6448 2.34596 62.2228 6.74121C68.8008 11.1365 73.9277 17.3836 76.9552 24.6927C79.9827 32.0017 80.7748 40.0444 79.2314 47.8036C77.688 55.5628 73.8784 62.6902 68.2843 68.2843C62.6902 73.8784 55.5628 77.688 47.8036 79.2314C40.0444 80.7748 32.0017 79.9827 24.6927 76.9552C17.3836 73.9277 11.1365 68.8008 6.74121 62.2228C2.34596 55.6448 0 47.9112 0 40C0 29.3913 4.21427 19.2172 11.7157 11.7157C19.2172 4.21427 29.3913 0 40 0ZM40.4072 12.2161C45.859 12.2161 51.1883 13.8328 55.7213 16.8616C60.2542 19.8904 63.7873 24.1954 65.8736 29.2322C67.9599 34.269 68.5057 39.8113 67.4421 45.1583C66.3786 50.5053 63.7533 55.4169 59.8983 59.2718C56.0433 63.1268 51.1318 65.7521 45.7848 66.8157C40.4378 67.8793 34.8955 67.3334 29.8587 65.2471C24.8219 63.1608 20.5169 59.6278 17.4881 55.0948C14.4592 50.5618 12.8426 45.2325 12.8426 39.7807C12.8426 32.4701 15.7467 25.459 20.9161 20.2896C26.0854 15.1203 33.0966 12.2161 40.4072 12.2161Z" fill="url(#paint0_linear_15_1260)"/>
<defs>
<linearGradient id="paint0_linear_15_1260" x1="0" y1="0" x2="80" y2="0" gradientUnits="userSpaceOnUse">
<stop stop-color="#2F9DEA"/>
<stop offset="1" stop-color="#27E9F7"/>
</linearGradient>
</defs>
</svg>
